<?xml version="1.0" encoding="utf-8"?>
<!-- Generator: Adobe Illustrator 27.9.4, SVG Export Plug-In . SVG Version: 9.03 Build 54784)  -->
<svg version="1.1" id="Camada_1" xmlns="http://www.w3.org/2000/svg" xmlns:xlink="http://www.w3.org/1999/xlink" x="0px" y="0px"
	 viewBox="0 0 1041.28 554.14" style="enable-background:new 0 0 1041.28 554.14;" xml:space="preserve">
<style type="text/css">
	.st0{fill:#F4F7FA;}
	.st1{fill:#2F599F;}
	.st2{fill:url(#SVGID_1_);}
	.st3{fill:#D8DEE7;}
	.st4{fill:#FFFFFF;}
	.st5{fill:url(#SVGID_00000017474884490503147660000001801311395145061055_);}
	.st6{fill:url(#SVGID_00000015351009705227326530000002617842857259360958_);}
	.st7{fill:#D8DEE8;}
	.st8{opacity:0.5;}
	.st9{clip-path:url(#SVGID_00000152242431683180953690000001668136437088274820_);}
	.st10{fill:url(#SVGID_00000003063936819103523570000001503394854398096300_);}
	.st11{fill:url(#SVGID_00000169520141255558209680000009888247887061187772_);}
	.st12{fill:url(#SVGID_00000023251581003701798350000013695424297866306973_);}
	.st13{fill:url(#SVGID_00000072959815451001981070000007059615967536848036_);}
	.st14{fill:url(#SVGID_00000023989134802058622560000005051581759404062598_);}
	.st15{fill:url(#SVGID_00000082353650833272736540000012371539873141513642_);}
	.st16{fill:url(#SVGID_00000179640705234138607530000010385397082464302725_);}
	.st17{clip-path:url(#SVGID_00000168819560874905514100000008757711330191540923_);}
	.st18{fill:url(#SVGID_00000050663025140930001730000009533801867487283848_);}
	.st19{fill:#EFAE2E;}
	.st20{fill:url(#SVGID_00000023268426376302080670000016778807255711496593_);}
	.st21{fill:url(#SVGID_00000140706111752778748110000002101163829399015839_);}
	.st22{fill:url(#SVGID_00000000200112593542151970000008147361846181911980_);}
	.st23{fill:url(#SVGID_00000093162096855151882930000008067654561468317579_);}
	.st24{fill:url(#SVGID_00000029045969904629025010000004326447334898978182_);}
	.st25{opacity:0.3;}
	.st26{fill:url(#SVGID_00000106121960210130826130000001184564519583437734_);}
	.st27{fill:url(#SVGID_00000117655797274280967410000012210589704319955840_);}
	.st28{clip-path:url(#SVGID_00000036221139688100990610000004654957024229756838_);}
	.st29{fill:url(#SVGID_00000088129977192664875360000016673674887674038422_);}
	.st30{fill:url(#SVGID_00000179621999273689178400000000047634287577149577_);}
	.st31{fill:url(#SVGID_00000003086662613087826840000008184796399380860061_);}
	.st32{fill:url(#SVGID_00000161618663648231370590000001775752522656377728_);}
	.st33{fill:url(#SVGID_00000112596379101021528130000000699614806607919798_);}
	.st34{fill:url(#SVGID_00000067941821219684125400000016319567475922868126_);}
	.st35{fill:#26264F;}
	.st36{fill:url(#SVGID_00000001664218392506539460000015118067545786941596_);}
	.st37{fill:url(#SVGID_00000065771672982417547820000013240242486599423896_);}
</style>
<path class="st0" d="M550.04,272.75c0,118.34-95.93,214.28-214.28,214.28s-214.28-95.93-214.28-214.28S246.7,78.33,359.1,41.28
	C460.11,7.99,550.04,154.41,550.04,272.75z"/>
<path class="st0" d="M775.93,434.89C663.26,579,399.41,581.32,326.37,501.27c-29.15-31.94-36.85-86.81-48.16-167.4
	c-5.45-38.79-6.23-70.07-6.69-91.52c-1.59-72.98-2.39-109.48,9.36-134.3C314.53,36.98,431.43,9.32,507,8.04
	c5.27-0.09,10.6-0.06,15.96,0.11c88.48,2.64,188.32,39.47,249.89,118.17c6.36,8.12,12.31,16.69,17.8,25.71
	C846.85,244.45,837.39,356.28,775.93,434.89z"/>
<g>
	<g>
		<path class="st1" d="M825.53,496.6l-538.89-4.59v13.59c0,3.69,2.35,6.83,5.53,7.38l152.38,26.76c1.81,0.32,3.64,0.4,5.47,0.25
			l369.65-30.52c3.3-0.27,5.86-3.42,5.86-7.21V496.6z"/>
		<g>
			<path class="st1" d="M629.97,474.82l-337.76,24.86c-6.04,0.44-10.96-4.28-10.96-10.56V237.6c0-6.28,4.91-11.37,10.96-11.37
				h337.76c4.98,0,9.01,4.6,9.01,10.28v227.37C638.97,469.56,634.95,474.45,629.97,474.82z"/>
			<linearGradient id="SVGID_1_" gradientUnits="userSpaceOnUse" x1="286.6384" y1="362.9755" x2="644.36" y2="362.9755">
				<stop  offset="0" style="stop-color:#A6DAEC"/>
				<stop  offset="0.4973" style="stop-color:#6CC6F1"/>
				<stop  offset="1" style="stop-color:#2E57A4"/>
			</linearGradient>
			<path class="st2" d="M635.35,474.82L297.6,499.68c-6.04,0.44-10.96-4.28-10.96-10.56V237.6c0-6.28,4.91-11.37,10.96-11.37h337.76
				c4.98,0,9.01,4.6,9.01,10.28v227.37C644.36,469.56,640.33,474.45,635.35,474.82z"/>
			<path class="st3" d="M624.83,458.79l-314.59,21.6c-4.92,0.34-8.92-3.54-8.92-8.67V251.52c0-5.13,4-9.3,8.92-9.32l314.59-1.36
				c4.11-0.02,7.43,3.75,7.43,8.42v200.57C632.26,454.5,628.94,458.51,624.83,458.79z"/>
			<path class="st4" d="M478.4,233.12c0,2.34-1.74,4.24-3.89,4.24c-2.15,0.01-3.89-1.89-3.89-4.23c0-2.34,1.74-4.24,3.89-4.24
				C476.67,228.89,478.4,230.78,478.4,233.12z"/>
		</g>
		
			<linearGradient id="SVGID_00000004506143987608474370000008321902850669851029_" gradientUnits="userSpaceOnUse" x1="286.6384" y1="500.5205" x2="825.5314" y2="500.5205">
			<stop  offset="0" style="stop-color:#A6DAEC"/>
			<stop  offset="0.4973" style="stop-color:#6CC6F1"/>
			<stop  offset="1" style="stop-color:#2E57A4"/>
		</linearGradient>
		<path style="fill:url(#SVGID_00000004506143987608474370000008321902850669851029_);" d="M648.82,473.44l-362.18,26.17
			l157.92,27.74c1.81,0.32,3.64,0.4,5.47,0.25l375.51-31l-170.95-22.98C652.67,473.36,650.74,473.3,648.82,473.44z"/>
		<polygon class="st1" points="339.49,499.84 641.01,477.72 734.33,490.17 435.4,513.81 		"/>
	</g>
</g>
<g>
	<g>
		<g>
			<path class="st4" d="M787.48,56.53v164.47c0,7.59-5.16,13.86-11.65,14.02l-54.06,1.32l-166.75,4.08
				c-6.78,0.16-13.1-5.35-13.85-12.62c-0.06-0.55-0.81-1.11-0.81-1.68V50.88c0-2.96,1.53-5.68,2.89-7.95
				c0.04-0.06,0.44-0.12,0.47-0.18c2.38-3.82,6.58-6.25,11.13-6.13l25.3,0.67l195.64,5.19C782.28,42.66,787.48,48.94,787.48,56.53z"
				/>
			
				<linearGradient id="SVGID_00000064352871407004795210000005516735158175439281_" gradientUnits="userSpaceOnUse" x1="546.0411" y1="138.5251" x2="783.9057" y2="138.5251">
				<stop  offset="0" style="stop-color:#FFFFFF"/>
				<stop  offset="0.9964" style="stop-color:#EBEFF2"/>
			</linearGradient>
			<path style="fill:url(#SVGID_00000064352871407004795210000005516735158175439281_);" d="M555.03,235.77
				c-4.95,0.12-8.99-4.25-8.99-9.74V51.01c0-5.49,4.04-9.85,8.99-9.72l220.88,5.6c4.41,0.11,7.99,4.4,7.99,9.56v164.63
				c0,5.16-3.58,9.44-7.99,9.54L555.03,235.77z"/>
			<path class="st7" d="M775.91,42.49l-220.88-5.86c-7.29-0.19-13.23,6.2-13.23,14.28v10.5l245.83,4.98v-9.85
				C787.64,48.95,782.4,42.66,775.91,42.49z"/>
			<path class="st4" d="M565.34,49.64c0,2.41-1.92,4.32-4.3,4.26c-2.38-0.05-4.31-2.05-4.31-4.46c0-2.41,1.93-4.32,4.31-4.26
				C563.42,45.23,565.34,47.23,565.34,49.64z"/>
			<path class="st4" d="M580.36,49.99c0,2.4-1.91,4.3-4.26,4.25c-2.36-0.05-4.27-2.04-4.27-4.45c0-2.4,1.91-4.3,4.27-4.25
				C578.45,45.6,580.36,47.59,580.36,49.99z"/>
			<path class="st4" d="M595.27,50.33c0,2.39-1.89,4.28-4.23,4.23c-2.34-0.05-4.24-2.03-4.24-4.43c0-2.39,1.9-4.29,4.24-4.23
				C593.37,45.96,595.27,47.94,595.27,50.33z"/>
			<polygon class="st7" points="773.95,221.35 557.23,225.86 557.23,88.02 773.95,90.99 			"/>
			<g class="st8">
				<polygon class="st4" points="673.11,75.75 557.23,73.75 557.23,81.19 673.11,82.98 				"/>
				<polygon class="st4" points="761.44,77.27 761.44,84.34 773.95,84.53 773.95,77.49 				"/>
			</g>
			<g class="st8">
				<path class="st4" d="M723.18,236.34l-166.77,4.08c-6.78,0.16-13.15-5.35-13.9-12.62c0-0.16-0.78-0.31-0.78-0.48V50.81
					c0-2.92,1.53-5.62,2.85-7.87c0.04-0.06,0.46-0.12,0.5-0.18c2.37-3.92,6.62-6.44,11.22-6.31l25.16,0.67
					c0.02,0.06,0.09,0.12,0.11,0.18c0.47,1.53,1.01,3.09,1.57,4.67c2.23,6.25,5.21,12.81,9.21,19.27c0.24,0.4,0.5,0.79,0.75,1.18
					c2.94,4.61,6.07,8.6,9.34,12.09c2.61,2.79,5.31,5.27,8.08,7.49c3.24,2.61,6.58,4.86,9.98,6.88
					c24.49,14.53,51.99,16.43,70.23,45.55c15.63,24.96,4.44,38.07,19.56,76.26c1.64,4.15,3.41,8.12,5.28,11.91
					c1.59,3.24,3.26,6.36,4.99,9.35C721.41,233.44,722.29,234.91,723.18,236.34z"/>
			</g>
		</g>
		<g>
			<defs>
				<polygon id="SVGID_00000017489167267198963950000009258127559977059459_" points="762.15,222 569.79,224.78 569.79,25.72 
					762.15,31.19 				"/>
			</defs>
			<clipPath id="SVGID_00000041265215078804191820000013948753441690043013_">
				<use xlink:href="#SVGID_00000017489167267198963950000009258127559977059459_"  style="overflow:visible;"/>
			</clipPath>
			<g style="clip-path:url(#SVGID_00000041265215078804191820000013948753441690043013_);">
				<g>
					
						<linearGradient id="SVGID_00000134226743662883213820000010300982509622888633_" gradientUnits="userSpaceOnUse" x1="723.516" y1="51.0892" x2="677.8356" y2="140.5465">
						<stop  offset="0" style="stop-color:#AB316D"/>
						<stop  offset="1" style="stop-color:#792D3D"/>
					</linearGradient>
					<path style="fill:url(#SVGID_00000134226743662883213820000010300982509622888633_);" d="M634.93,220.03
						c-37.63-5.8-46.01-10.07-49.89-18.06c-5.65-11.62-1.54-30.52,8.11-42.16c8.44-10.17,18.93-12.15,18.63-19.18
						c-0.25-5.79-23.44,19.7-28.73,8.78c-1.55-3.19,11.45-35.66,12.76-43.09c1.91-10.87,11.65-16.45,12.44-16.89
						c10.15-5.61,15.92,1.09,23.53-3.94c9.49-6.28,5.19-19.87,14.07-23.61c6.45-2.71,14.67,1.96,16.81,3.18
						c7.13,4.05,6.38,8.01,12.39,10.54c7.03,2.97,10.39-1.48,18.53,0.46c6.71,1.6,11.55,6.55,15.5,11.51
						c8.85,11.12,4.45,17.6,10.99,31.22c9.17,19.12,22.95,17,25.39,32.24c1.27,7.97-2,11.58,0.51,23.78
						c1.7,8.23,3.83,9.7,4.21,14.54c1.09,13.92-14.64,26.31-17.59,28.5C713.77,231.82,687.54,228.13,634.93,220.03z"/>
				</g>
				
					<linearGradient id="SVGID_00000095333903776341415780000017851739119960135101_" gradientUnits="userSpaceOnUse" x1="678.7059" y1="338.3691" x2="656.8066" y2="179.5989">
					<stop  offset="3.597120e-03" style="stop-color:#E38DDD"/>
					<stop  offset="1" style="stop-color:#9571F6"/>
				</linearGradient>
				<path style="fill:url(#SVGID_00000095333903776341415780000017851739119960135101_);" d="M592.96,270.79
					c-5.7-14.3-2.23-36.89-1.49-41.65c2.86-18.55,9.58-30.07,12.03-34.15c16.74-27.95,42.06-27.74,61.06-27.59
					c9.36,0.08,19.04-0.13,30.84,4.23c0,0,9.31,3.44,17.17,9.18c23.41,17.08,41.82,73.02,23.01,94.48
					c-12.03,13.72-24.39-3.35-78.39,5.8c-21.85,3.7-44.98,9.75-58.76-2.19C596.15,276.91,594.35,274.27,592.96,270.79z"/>
				
					<linearGradient id="SVGID_00000131362069729078853510000003146909092289889711_" gradientUnits="userSpaceOnUse" x1="664.7425" y1="203.8819" x2="661.5371" y2="134.3247">
					<stop  offset="0" style="stop-color:#FFC444"/>
					<stop  offset="0.9964" style="stop-color:#F36F56"/>
				</linearGradient>
				<path style="fill:url(#SVGID_00000131362069729078853510000003146909092289889711_);" d="M654.6,133.9c0,0,4,29.96-16.34,35.94
					c-2.36,0.69-3.08,3.8-1.3,5.54l25.08,24.38c1.51,1.47,3.89,1.35,5.28-0.27l22.47-26.16c1.47-1.71,0.82-4.42-1.23-5.21
					c-7.19-2.76-20.12-10.85-17.4-32.69L654.6,133.9z"/>
				
					<linearGradient id="SVGID_00000016053362258193062740000000489313874186554523_" gradientUnits="userSpaceOnUse" x1="661.3199" y1="142.722" x2="662.5478" y2="95.71">
					<stop  offset="0" style="stop-color:#FFC444"/>
					<stop  offset="0.9964" style="stop-color:#F36F56"/>
				</linearGradient>
				<path style="fill:url(#SVGID_00000016053362258193062740000000489313874186554523_);" d="M642.13,117.16
					c0.01,0.33,5.49,29.65,19.53,29.69c13.22,0.03,18.22-21.36,19.85-31.35c0.17-1.7,0.35-3.4,0.52-5.09
					c-0.89,0.3-3.12,0.9-5.77,0.12c-0.6-0.18-4.43-1.31-5.85-4.63c-1.59-3.7,1.33-6.6-0.33-9.84c-0.96-1.88-2.9-2.78-4.39-3.25
					c0.99,1.53,2.9,4.93,1.82,7.99c-0.73,2.05-2.77,4.01-7.32,5.16C647.12,109.26,642,110.52,642.13,117.16z"/>
				
					<linearGradient id="SVGID_00000155869206263529211580000004888654537498438077_" gradientUnits="userSpaceOnUse" x1="642.0334" y1="137.7828" x2="643.1644" y2="94.4835">
					<stop  offset="0" style="stop-color:#FFC444"/>
					<stop  offset="0.9964" style="stop-color:#F36F56"/>
				</linearGradient>
				<path style="fill:url(#SVGID_00000155869206263529211580000004888654537498438077_);" d="M645.58,120.69
					c0,0-7.27-6.46-7.91-2.55c-1.33,8.16,4.9,12.71,8.28,10.29C649.32,126.02,645.58,120.69,645.58,120.69z"/>
				
					<linearGradient id="SVGID_00000164487827027371224640000003061697788172567689_" gradientUnits="userSpaceOnUse" x1="680.0716" y1="138.8918" x2="681.1848" y2="96.272">
					<stop  offset="0" style="stop-color:#FFC444"/>
					<stop  offset="0.9964" style="stop-color:#F36F56"/>
				</linearGradient>
				<path style="fill:url(#SVGID_00000164487827027371224640000003061697788172567689_);" d="M677.38,120.95c0,0,7.15-6.28,7.77-2.4
					c1.3,8.09-4.81,12.52-8.13,10.08C673.69,126.19,677.38,120.95,677.38,120.95z"/>
			</g>
		</g>
	</g>
	<g>
		<path class="st4" d="M753.25,297.78v135.28c0,6.24-4.24,11.62-9.61,12.01l-44.61,3.19l-0.05,0.01l-136.56,9.76
			c-0.9,0.06-1.77,0.01-2.62-0.16c-0.16-0.03-0.31-0.07-0.47-0.1c-0.3-0.08-0.6-0.17-0.9-0.27c-0.29-0.11-0.58-0.23-0.87-0.36
			c-0.42-0.21-0.84-0.43-1.23-0.69c-0.26-0.17-0.51-0.36-0.75-0.55c-0.25-0.2-0.49-0.4-0.71-0.62c-1.81-1.75-3.05-4.21-3.34-7.03
			c-0.05-0.44-0.24-0.91-0.24-1.38V304.08c0-0.13,0-0.25,0.01-0.38c0.01-0.15,0.02-0.29,0.03-0.44c0.18-2.07,0.93-4.01,1.91-5.68
			c0.03-0.05,0.14-0.1,0.18-0.15c1.57-2.6,4.04-4.51,6.88-5.2c0.33-0.08,0.67-0.15,1.01-0.2c0.35-0.05,0.7-0.04,1.05-0.06
			l20.55-0.54h0.01l44.35-1.3l116.33-3.34c0.12,0,0.24-0.02,0.36,0c0.14,0,0.29,0,0.43,0.01c0.14,0.01,0.28,0.02,0.42,0.03
			C749.62,287.38,753.25,292.01,753.25,297.78z"/>
		
			<linearGradient id="SVGID_00000182493977908586677470000002806916561761162663_" gradientUnits="userSpaceOnUse" x1="555.1069" y1="372.3159" x2="750.3712" y2="372.3159">
			<stop  offset="0" style="stop-color:#FFFFFF"/>
			<stop  offset="0.9964" style="stop-color:#EBEFF2"/>
		</linearGradient>
		<path style="fill:url(#SVGID_00000182493977908586677470000002806916561761162663_);" d="M562.42,454.23
			c-4.03,0.28-7.32-3.12-7.32-7.59V304.05c0-4.47,3.29-8.2,7.32-8.32l181.33-5.34c3.65-0.11,6.62,3.26,6.62,7.5V433.3
			c0,4.24-2.97,7.91-6.62,8.16L562.42,454.23z"/>
		<path class="st7" d="M743.75,286.77l-181.33,5.16c-5.93,0.17-10.76,5.64-10.76,12.22v8.55l201.8-6.81v-8.1
			C753.47,291.55,749.12,286.62,743.75,286.77z"/>
		<path class="st4" d="M570.81,302.08c0,1.96-1.57,3.6-3.5,3.67c-1.93,0.06-3.51-1.48-3.51-3.45c0-1.97,1.57-3.61,3.51-3.67
			C569.25,298.57,570.81,300.11,570.81,302.08z"/>
		<path class="st4" d="M583.05,301.7c0,1.96-1.56,3.59-3.48,3.65c-1.92,0.06-3.48-1.48-3.48-3.44s1.56-3.6,3.48-3.65
			C581.49,298.2,583.05,299.74,583.05,301.7z"/>
		<path class="st4" d="M595.21,301.32c0,1.95-1.55,3.58-3.45,3.64c-1.91,0.06-3.46-1.47-3.46-3.43c0-1.95,1.55-3.58,3.46-3.64
			C593.67,297.83,595.21,299.37,595.21,301.32z"/>
		<polygon class="st7" points="742.13,433.92 564.21,446.08 564.21,333.72 742.13,326.73 		"/>
		<g class="st8">
			<polygon class="st4" points="658.96,318.65 564.21,322.09 564.21,328.16 658.96,324.57 			"/>
			<polygon class="st4" points="731.77,316.01 731.77,321.81 742.13,321.42 742.13,315.63 			"/>
		</g>
		<g class="st8">
			<path class="st4" d="M699.04,448.27l-136.61,9.75c-0.9,0.06-1.77,0.01-2.62-0.16c-0.16-0.03-0.31-0.07-0.47-0.1
				c-0.3-0.08-0.6-0.17-0.9-0.27c-0.29-0.11-0.58-0.23-0.87-0.36c-0.42-0.21-0.84-0.43-1.23-0.69c-0.26-0.17-0.51-0.36-0.75-0.55
				c-0.25-0.2-0.49-0.4-0.71-0.62c-1.82-1.75-3.07-4.2-3.36-7.02c0-0.13-0.22-0.27-0.22-0.4V304.08c0-0.13,0-0.25,0.01-0.38
				c0.01-0.15,0.02-0.29,0.03-0.44c0.16-2.07,0.92-4,1.88-5.68c0.03-0.05,0.16-0.1,0.19-0.15c1.93-3.3,5.28-5.53,9.02-5.64
				l20.38-0.58c0.01,0.05-0.01,0.1-0.01,0.14v0.01c0.68,1.23,0.88,2.47,1.34,3.73c1.81,5,4.28,10.23,7.55,15.32
				c0.2,0.31,0.42,0.62,0.63,0.93c2.4,3.64,4.96,6.75,7.63,9.45c2.13,2.17,4.34,4.07,6.6,5.76c2.65,1.99,5.38,3.69,8.16,5.18
				c0,0.01,0.01,0.01,0.01,0.01c4.12,2.22,8.35,4,12.59,5.63c16.41,6.3,33.1,10.3,45.01,28.64c11.37,17.5,5.5,28.28,12.56,51.72
				c0.74,2.45,1.62,5.05,2.68,7.8c0.27,0.72,0.56,1.45,0.86,2.2c1.35,3.34,2.81,6.52,4.35,9.56c1.31,2.59,2.69,5.09,4.11,7.48
				c0.71,1.19,1.43,2.35,2.16,3.49C699.03,448.26,699.04,448.26,699.04,448.27z"/>
		</g>
		<g>
			<defs>
				<polygon id="SVGID_00000146458066626460392420000000402673583410732928_" points="732.03,434.67 574.58,444.43 574.58,278.25 
					732.03,274.14 				"/>
			</defs>
			<clipPath id="SVGID_00000168089447650717997450000017528626973119880097_">
				<use xlink:href="#SVGID_00000146458066626460392420000000402673583410732928_"  style="overflow:visible;"/>
			</clipPath>
			<g style="clip-path:url(#SVGID_00000168089447650717997450000017528626973119880097_);">
				
					<linearGradient id="SVGID_00000031894084989365050700000017098964794766429313_" gradientUnits="userSpaceOnUse" x1="642.3467" y1="279.0835" x2="659.6536" y2="554.9755">
					<stop  offset="3.597000e-03" style="stop-color:#F36F56"/>
					<stop  offset="1" style="stop-color:#FFC444"/>
				</linearGradient>
				<path style="fill:url(#SVGID_00000031894084989365050700000017098964794766429313_);" d="M586.96,477.81
					c-5.49-14.3,2.25-38.84,7.12-50.02c14.12-32.44,39.84-34.83,60.71-36.78c20.32-1.89,39.76-3.7,53.88,19.29
					c9.18,14.94,17.59,42.75,11.98,58.22c-5.91,16.31-22.4,5.15-62.1,7.71C614.07,479.12,593.8,495.63,586.96,477.81z"/>
				<path class="st19" d="M673.97,393.31c0,3.92-9.17,9.13-20.52,9.74c-11.41,0.62-20.71-3.63-20.71-7.59s9.3-2.67,20.71-3.26
					C664.81,391.61,673.97,389.39,673.97,393.31z"/>
				
					<linearGradient id="SVGID_00000132777450429997038930000016519351403105545626_" gradientUnits="userSpaceOnUse" x1="653.8071" y1="407.9957" x2="653.627" y2="379.1718">
					<stop  offset="0" style="stop-color:#AB316D"/>
					<stop  offset="1" style="stop-color:#792D3D"/>
				</linearGradient>
				<path style="fill:url(#SVGID_00000132777450429997038930000016519351403105545626_);" d="M645.86,367.24
					c-3.15,0.14,4.11,22.79-7.33,26.54c-1.11,0.36-1.29,1.92-0.28,2.44c3.08,1.57,8.83,3.46,18.23,2.96
					c6.09-0.32,10.53-2.96,12.84-4.69c0.79-0.59,0.71-1.82-0.13-2.23c-3.49-1.7-8.35-7.45-6.9-25.18L645.86,367.24z"/>
				
					<linearGradient id="SVGID_00000098899306042393645460000005195335418940846208_" gradientUnits="userSpaceOnUse" x1="651.3877" y1="366.686" x2="656.1656" y2="309.1674">
					<stop  offset="0" style="stop-color:#AB316D"/>
					<stop  offset="1" style="stop-color:#792D3D"/>
				</linearGradient>
				<path style="fill:url(#SVGID_00000098899306042393645460000005195335418940846208_);" d="M636.28,340.05
					c0.05,0.29,1,21.28,5.63,31.57c1.33,2.95,7.89,2.28,12.12,1.71c3.67-0.49,9.42,0.64,11.04-2.08c6.48-10.9,5.39-37.11,5.39-37.11
					s-3.32-8.61-16.99-7.87C639.71,327.02,636.28,340.05,636.28,340.05z"/>
				
					<linearGradient id="SVGID_00000139974855345198073640000012393194475387237026_" gradientUnits="userSpaceOnUse" x1="635.2496" y1="365.7819" x2="639.9641" y2="309.0264">
					<stop  offset="0" style="stop-color:#AB316D"/>
					<stop  offset="1" style="stop-color:#792D3D"/>
				</linearGradient>
				<path style="fill:url(#SVGID_00000139974855345198073640000012393194475387237026_);" d="M639.51,351.21
					c0,0-2.89-3.37-5.61-3.72c-2.73-0.35-4.51,7.06-0.78,11.67c3.72,4.6,8.01,0.46,8.01,0.46L639.51,351.21z"/>
				
					<linearGradient id="SVGID_00000023984186038558961430000007187510164756415892_" gradientUnits="userSpaceOnUse" x1="669.8273" y1="367.4022" x2="674.6012" y2="309.9323">
					<stop  offset="0" style="stop-color:#AB316D"/>
					<stop  offset="1" style="stop-color:#792D3D"/>
				</linearGradient>
				<path style="fill:url(#SVGID_00000023984186038558961430000007187510164756415892_);" d="M667.47,350.02
					c0,0,2.85-3.58,5.53-4.16c2.68-0.57,4.42,6.62,0.77,11.5c-3.66,4.89-7.89,1.16-7.89,1.16L667.47,350.02z"/>
				
					<linearGradient id="SVGID_00000054988605964046769940000010669130031586458300_" gradientUnits="userSpaceOnUse" x1="650.1691" y1="339.1792" x2="662.9158" y2="299.646">
					<stop  offset="0" style="stop-color:#311944"/>
					<stop  offset="1" style="stop-color:#6B3976"/>
				</linearGradient>
				<path style="fill:url(#SVGID_00000054988605964046769940000010669130031586458300_);" d="M637.25,351.04
					c0.36,0.68,0.78,1.31,1.06,1.22c1.17-0.37-3.34-12,0.81-16.3c2.14-2.22,4.55-0.37,13.3-1.12c8.77-0.76,11.01-3.03,13.65-1.46
					c2.4,1.43,4.55,5.7,2.77,18.65c0.5-0.14,0.99-0.28,1.49-0.42c-0.67-4.19,0.06-6.88,0.89-8.6c0.61-1.25,1.71-2.87,1.62-5.15
					c-0.05-1.41-0.5-1.46-0.57-2.61c-0.22-3.38,3.48-4.44,3.66-7.79c0.14-2.58-1.99-3.09-1.6-5.8c0.33-2.3,1.99-2.79,1.73-4.44
					c-0.28-1.78-2.5-3.03-4.06-3.44c-1.59-0.42-2.17,0.13-3.1-0.52c-1.51-1.04-0.78-3-1.88-3.68c-1.95-1.21-5.82,4.03-8.33,2.84
					c-1.52-0.72-0.93-3.04-2.28-3.56c-2.6-0.99-7.21,6.77-9.06,5.83c-0.89-0.45-0.03-2.34-1.28-3.66c-1.46-1.56-4.99-1.44-6.59,0.32
					c-1.5,1.64-0.23,3.49-1.81,5.55c-1.43,1.85-3.07,1.17-4.69,2.67c-2.74,2.56-1.79,8.09-1.45,10.06c1.17,6.79,4.82,8.03,4,12.72
					c-0.21,1.2-0.7,2.55-0.35,4.48C635.52,348.74,636.47,350.14,637.25,351.04z"/>
				<g class="st25">
					
						<linearGradient id="SVGID_00000107555775475058177250000015655733476913515148_" gradientUnits="userSpaceOnUse" x1="650.2062" y1="339.0667" x2="663.0466" y2="299.2433">
						<stop  offset="0" style="stop-color:#311944"/>
						<stop  offset="1" style="stop-color:#6B3976"/>
					</linearGradient>
					<path style="fill:url(#SVGID_00000107555775475058177250000015655733476913515148_);" d="M670.62,334.99
						c-0.32-3.32,2.15-4.97,1.73-7.33c-0.33-1.9-2.4-3.54-4.34-3.83c-4.15-0.63-6.83,5.85-10.97,5.32c-3.2-0.42-2.85-4.46-6.47-5.95
						c-5.75-2.37-11.79,5.72-15.63,3.68c-1.16-0.61-2.32-2.26-2.41-6.82c-2.21,2.71-1.34,7.74-1.02,9.6c1.17,6.79,4.82,8.03,4,12.72
						c-0.21,1.2-0.7,2.55-0.35,4.48c0.34,1.89,1.29,3.29,2.07,4.2c0.36,0.68,0.78,1.31,1.06,1.22c1.17-0.37-3.34-12,0.81-16.3
						c2.14-2.22,4.55-0.37,13.3-1.12c8.77-0.76,11.01-3.03,13.65-1.46c2.4,1.43,4.55,5.7,2.77,18.65c0.5-0.14,0.99-0.28,1.49-0.42
						c-0.67-4.19,0.06-6.88,0.89-8.6c0.25-0.51,0.58-1.09,0.88-1.75c-0.06-1.11-0.24-2.32-0.62-3.58
						C671.05,336.19,670.73,336.06,670.62,334.99z"/>
				</g>
			</g>
		</g>
	</g>
	<path class="st7" d="M627.29,290.08v64.26c0,9.13-6.56,16.85-14.67,17.27l-48.42,2.51l-9.1,0.47l-3.8,0.2v-70.7
		c0-0.13,0-0.25,0.01-0.38c0.01-0.15,0.02-0.29,0.03-0.44c0.16-2.07,0.92-4,1.88-5.68c0.03-0.05,0.16-0.1,0.19-0.15
		c1.93-3.3,5.28-5.53,9.02-5.64l20.45-0.58c0.01,0.05,0.04,0.1,0.06,0.14L627.29,290.08z"/>
	<g>
		<path class="st7" d="M619.87,149.72c0-7.98-5.05-14.66-11.72-16.24c-0.24-0.06-0.5-0.11-0.75-0.15c-0.73-0.13-1.48-0.2-2.24-0.2
			l-140.11-0.82l-138.25-0.81c-0.29,0-0.58,0-0.87,0.02c-3.69,0.18-7.07,1.61-9.76,3.91c-0.05,0.04-0.1,0.08-0.15,0.13
			c-0.39,0.34-0.76,0.69-1.11,1.06c-0.01,0.01-0.02,0.02-0.03,0.03c-0.21,0.22-0.41,0.45-0.61,0.68c-2.69,3.13-4.33,7.29-4.33,11.86
			v12.76l0,0v200.21c0,1.53,0.19,3.01,0.53,4.42c0.21,0.84,0.47,1.66,0.79,2.44c2.13,5.2,6.63,8.95,12.09,9.87
			c1.11,0.18,2.25,0.25,3.43,0.19l211.57-10.96v0l66.83-3.46c8.09-0.42,14.67-8.15,14.67-17.26V161.56l0,0V149.72z"/>
		<g>
			<path class="st4" d="M620.45,149.62v197.88c0,9.13-6.56,16.86-14.67,17.27l-67.81,3.51l-211.15,10.93
				c-8.65,0.45-16.29-6.05-17.25-14.87c-0.08-0.67-0.6-215.26-0.6-215.26c0-3.6,1.5-6.95,3.25-9.74c0.05-0.08,0.33-0.15,0.38-0.23
				c3.04-4.7,8.29-7.77,14.09-7.73l32.18,0.19L605.75,133C613.86,133.05,620.45,140.49,620.45,149.62z"/>
			
				<linearGradient id="SVGID_00000123407321261875057210000008966696509485701563_" gradientUnits="userSpaceOnUse" x1="315.3441" y1="255.2936" x2="615.7535" y2="255.2936">
				<stop  offset="0" style="stop-color:#FFFFFF"/>
				<stop  offset="0.9964" style="stop-color:#EBEFF2"/>
			</linearGradient>
			<path style="fill:url(#SVGID_00000123407321261875057210000008966696509485701563_);" d="M326.82,373.54
				c-6.32,0.32-11.48-4.85-11.48-11.52V149.08c0-6.67,5.16-12.08,11.48-12.05l278.94,1.26c5.51,0.02,9.99,5.1,9.99,11.31v198.1
				c0,6.21-4.47,11.49-9.99,11.76L326.82,373.54z"/>
			<path class="st7" d="M605.77,133l-278.94-1.63c-9.31-0.05-16.89,7.87-16.89,17.7v12.77l310.48-0.38v-11.85
				C620.42,140.48,613.87,133.05,605.77,133z"/>
			<path class="st4" d="M339.97,146.92c0,2.93-2.45,5.29-5.48,5.29c-3.03,0-5.49-2.38-5.49-5.32c0-2.93,2.46-5.3,5.49-5.29
				C337.52,141.62,339.97,144,339.97,146.92z"/>
			<path class="st4" d="M359.1,146.97c0,2.91-2.43,5.27-5.43,5.27c-3,0-5.44-2.37-5.44-5.29s2.44-5.28,5.44-5.27
				C356.67,141.69,359.1,144.05,359.1,146.97z"/>
			<path class="st4" d="M378.06,147.01c0,2.9-2.41,5.25-5.38,5.24c-2.98,0-5.39-2.36-5.39-5.27c0-2.91,2.42-5.25,5.39-5.24
				C375.65,141.75,378.06,144.11,378.06,147.01z"/>
			<polygon class="st7" points="603.32,348.37 329.62,361.42 329.62,193.81 603.32,191.43 			"/>
			<g class="st8">
				<polygon class="st4" points="476.65,175.77 329.62,176.45 329.62,185.5 476.65,184.51 				"/>
				<polygon class="st4" points="587.66,175.25 587.66,183.76 603.32,183.66 603.32,175.18 				"/>
			</g>
			<g class="st8">
				<path class="st4" d="M537.96,368.27L326.82,379.2c-8.65,0.45-16.34-6.04-17.3-14.86c-0.01-0.2-0.55-215.36-0.55-215.36
					c0-3.56,1.51-6.87,3.2-9.65c0.05-0.08,0.36-0.15,0.41-0.23c3.03-4.83,8.34-7.99,14.21-7.96l32.01,0.19
					c0.02,0.07,0.08,0.15,0.11,0.22c0.6,1.85,1.27,3.73,1.99,5.63c2.83,7.54,6.63,15.43,11.71,23.17c0.31,0.48,0.63,0.94,0.95,1.41
					c3.74,5.52,7.72,10.28,11.87,14.42c3.32,3.32,6.74,6.25,10.26,8.86c4.12,3.08,8.35,5.72,12.66,8.07
					c31.02,16.92,65.78,18.44,88.78,53.12c19.69,29.68,5.59,45.86,24.62,91.49c2.07,4.96,4.29,9.69,6.64,14.2
					c2,3.86,4.1,7.56,6.27,11.11C535.74,364.83,536.85,366.57,537.96,368.27z"/>
			</g>
		</g>
		<g>
			<path class="st4" d="M436.95,331.5c0,6.24-4.88,11.5-10.91,11.76c-6.05,0.26-10.97-4.61-10.97-10.88
				c0-6.27,4.92-11.54,10.97-11.77C432.07,320.39,436.95,325.26,436.95,331.5z"/>
			<path class="st4" d="M480.76,329.73c0,6.17-4.77,11.37-10.67,11.63c-5.92,0.26-10.72-4.56-10.72-10.76s4.81-11.41,10.72-11.63
				C475.99,318.74,480.76,323.56,480.76,329.73z"/>
			<path class="st4" d="M523.62,327.99c0,6.1-4.67,11.25-10.44,11.5c-5.79,0.25-10.49-4.52-10.49-10.65s4.7-11.28,10.49-11.5
				C518.96,317.12,523.62,321.89,523.62,327.99z"/>
		</g>
		<g>
			<defs>
				<polygon id="SVGID_00000113326155394041629120000006965658388178654093_" points="587.59,348.64 345.94,358.68 345.94,130.98 
					587.59,132.31 				"/>
			</defs>
			<clipPath id="SVGID_00000096039596539728725150000013563491299696777638_">
				<use xlink:href="#SVGID_00000113326155394041629120000006965658388178654093_"  style="overflow:visible;"/>
			</clipPath>
			<g style="clip-path:url(#SVGID_00000096039596539728725150000013563491299696777638_);">
				
					<linearGradient id="SVGID_00000051367157920351409240000000499462509767161229_" gradientUnits="userSpaceOnUse" x1="556.8378" y1="155.6742" x2="429.2072" y2="406.9055">
					<stop  offset="0" style="stop-color:#FF9085"/>
					<stop  offset="1" style="stop-color:#FB6FBB"/>
				</linearGradient>
				<path style="fill:url(#SVGID_00000051367157920351409240000000499462509767161229_);" d="M473.12,368.52
					c-74.09,3.88-100.61,14.91-112.72-0.76c-11.2-14.49-1.92-68.51,11.39-83.92c20.89-24.19,54.06-26.05,98.7-28.22
					c41.22-2.01,66.27-3.23,85.86,14.01c18.16,15.98,29.69,72.18,18.45,88.4C564.32,373.16,541.76,364.93,473.12,368.52z"/>
				
					<linearGradient id="SVGID_00000102532659644221856070000006934455896454810796_" gradientUnits="userSpaceOnUse" x1="466.7716" y1="341.3907" x2="468.8887" y2="225.8041">
					<stop  offset="0" style="stop-color:#311944"/>
					<stop  offset="0.5554" style="stop-color:#6F2B60"/>
					<stop  offset="1" style="stop-color:#A03976"/>
				</linearGradient>
				<path style="fill:url(#SVGID_00000102532659644221856070000006934455896454810796_);" d="M445.96,256.06l-8.65,2.39
					c-2.13,0.59-3.1,3.06-1.91,4.87c5.9,9.02,21.46,31.55,31.15,33.96c9.98,2.48,28.5-26.87,34.63-37.13
					c1.06-1.77,0.21-4.04-1.72-4.62l-6.2-1.86c-5.09-1.53-10.45-2.03-15.8-1.49l-23.42,2.37
					C451.31,254.82,448.61,255.33,445.96,256.06z"/>
				
					<linearGradient id="SVGID_00000032615400136102305660000001270958943635444913_" gradientUnits="userSpaceOnUse" x1="470.2156" y1="264.3172" x2="478.2207" y2="316.3504">
					<stop  offset="0" style="stop-color:#FFC444"/>
					<stop  offset="0.9964" style="stop-color:#F36F56"/>
				</linearGradient>
				<path style="fill:url(#SVGID_00000032615400136102305660000001270958943635444913_);" d="M452.36,222.53
					c0,0,4.73,33.91-1.81,37.29l18.58,19.8l18.67-24.32c0,0-7.04-5.19-5.18-33.19L452.36,222.53z"/>
				
					<linearGradient id="SVGID_00000124157272098104300690000000611679737335543171_" gradientUnits="userSpaceOnUse" x1="466.4236" y1="184.4295" x2="464.4137" y2="317.0755">
					<stop  offset="0" style="stop-color:#FFC444"/>
					<stop  offset="0.9964" style="stop-color:#F36F56"/>
				</linearGradient>
				<path style="fill:url(#SVGID_00000124157272098104300690000000611679737335543171_);" d="M441.34,173.9
					c-0.68,0.91-9.48,43.98,20.86,48.07c29.96,4.04,31.27-27.38,30.89-40.69c-0.38-13.32-14.03-18.14-21.88-19.07
					C463.33,161.28,443.74,170.66,441.34,173.9z"/>
				
					<linearGradient id="SVGID_00000099620390241146111330000018421769097709596546_" gradientUnits="userSpaceOnUse" x1="541.5346" y1="312.0281" x2="539.5205" y2="444.9503" gradientTransform="matrix(0.9936 -0.1133 0.1133 0.9936 -139.3014 -71.3884)">
					<stop  offset="0" style="stop-color:#FFC444"/>
					<stop  offset="0.9964" style="stop-color:#F36F56"/>
				</linearGradient>
				<path style="fill:url(#SVGID_00000099620390241146111330000018421769097709596546_);" d="M439.58,198.99
					c0,0-1.52-7.01-6.75-2.59c-5.23,4.43,3.08,15.99,9.92,15.43L439.58,198.99z"/>
				
					<linearGradient id="SVGID_00000093865991052734577800000007707481993614810763_" gradientUnits="userSpaceOnUse" x1="494.0585" y1="184.6563" x2="492.0527" y2="317.0332">
					<stop  offset="0" style="stop-color:#FFC444"/>
					<stop  offset="0.9964" style="stop-color:#F36F56"/>
				</linearGradient>
				<path style="fill:url(#SVGID_00000093865991052734577800000007707481993614810763_);" d="M492.17,193.69
					c-0.86,0.59-3.31,16.92-3.31,16.92s4.3,0.46,7.41-5.42C499.37,199.32,500.86,187.71,492.17,193.69z"/>
				<path class="st35" d="M503.84,162.53c-3.12-5.22-11.03-2.74-13.34-7.8c-1.94-4.25,2.62-8.23,0.17-11.9
					c-2.05-3.08-7.07-3.02-7.97-3.01c-6.8,0.08-8.36,5.49-13.23,5.35c-5.96-0.17-6.19-8.32-14.09-11.8
					c-7.69-3.38-18.98-0.72-23.55,5.55c-3.56,4.88-0.53,8.48-5.21,14.76c-3.22,4.33-6.07,4.52-7.67,8.76
					c-1.51,3.98-0.49,7.78,0.31,10.59c1.91,6.74,5.46,9.71,10.83,16.85c2.4,3.19,5.68,7.92,9.07,14.15
					c1.42,3.75,3.44,9.56,5.32,16.89c1.7,6.67,1.6,8.03,3.19,10.17c5.47,7.38,17.92,6.44,23.14,6.05c5.97-0.45,13.38-1,17.1-6.25
					c2.01-2.83,1.76-5.36,2.22-12.13c0.33-4.83,1.02-11.62,2.58-19.85c0.03,0,0.69-3.77,2.42-8.42c2.15-5.8,4.39-6.74,6.81-12.73
					C503.87,172.97,506.38,166.78,503.84,162.53z M479.18,207.91c-3.68,1.04-6.17,0.17-11.18-0.07
					c-10.04-0.47-13.23,4.28-17.99,2.26c-1.99-0.84-6.59-3.22-7.57-7.85c-0.56-3.01-0.96-7.12-0.31-11.89
					c0.79-5.83,1.71-12.55,6.38-15.53c6.77-4.32,15.38,3.04,21.55-1.77c2.35-1.83,3.3-4.62,3.73-6.74
					c1.37,0.47,12.19,4.4,16.17,15.97c2.45,7.13,1.04,13.51-0.15,16.98C487.57,202.68,484.15,206.51,479.18,207.91z"/>
				
					<linearGradient id="SVGID_00000005250180161462851810000018123957895321348247_" gradientUnits="userSpaceOnUse" x1="473.07" y1="158.9334" x2="467.3313" y2="208.4781">
					<stop  offset="0" style="stop-color:#FFC444"/>
					<stop  offset="0.9964" style="stop-color:#F36F56"/>
				</linearGradient>
				<path style="fill:url(#SVGID_00000005250180161462851810000018123957895321348247_);" d="M458.4,215.2
					c3.88,1.15,9.71,1.9,16.21-0.66c0.67-0.26,1.25,0.47,0.69,0.88c-2.32,1.69-5.72,3.49-9.42,3.27c-3.06-0.19-5.88-1.34-8.05-2.54
					C457.2,215.8,457.69,214.99,458.4,215.2z"/>
			</g>
		</g>
	</g>
</g>
<g>
	<g>
		
			<linearGradient id="SVGID_00000171714393159049836210000017212186532454077625_" gradientUnits="userSpaceOnUse" x1="-4146.3765" y1="130.1835" x2="-4017.9915" y2="130.1835" gradientTransform="matrix(1 0 0 1 4428.1245 0)">
			<stop  offset="0" style="stop-color:#AA80F9"/>
			<stop  offset="0.9964" style="stop-color:#6165D7"/>
		</linearGradient>
		<path style="fill:url(#SVGID_00000171714393159049836210000017212186532454077625_);" d="M400.83,155.54
			c5.9-7.39,9.3-16.07,9.3-25.35c0-26.99-28.74-48.87-64.19-48.87s-64.19,21.88-64.19,48.87s28.74,48.87,64.19,48.87
			c13.29,0,25.63-3.07,35.87-8.34c6.77,1.15,17.28,3.1,22.82,4.13c1.63,0.3,2.97-1.29,2.39-2.85L400.83,155.54z"/>
	</g>
	<g>
		<path class="st4" d="M388.51,112.32c0,1.36-1.1,2.46-2.46,2.46h-78.04c-1.36,0-2.46-1.1-2.46-2.46l0,0c0-1.36,1.1-2.46,2.46-2.46
			h78.04C387.41,109.86,388.51,110.96,388.51,112.32L388.51,112.32z"/>
		<g>
			<path class="st4" d="M388.51,127.11c0,1.36-1.1,2.46-2.46,2.46h-78.04c-1.36,0-2.46-1.1-2.46-2.46l0,0c0-1.36,1.1-2.46,2.46-2.46
				h78.04C387.41,124.64,388.51,125.75,388.51,127.11L388.51,127.11z"/>
			<path class="st4" d="M351.55,141.89c0,1.36-1.1,2.46-2.46,2.46h-41.07c-1.36,0-2.46-1.1-2.46-2.46l0,0c0-1.36,1.1-2.46,2.46-2.46
				h41.07C350.44,139.43,351.55,140.53,351.55,141.89L351.55,141.89z"/>
		</g>
	</g>
</g>
</svg>
