<?xml version="1.0" encoding="UTF-8"?>
<svg id="Camada_1" data-name="Camada 1" xmlns="http://www.w3.org/2000/svg" xmlns:xlink="http://www.w3.org/1999/xlink" viewBox="0 0 1118.25 319.16">
  <defs>
    <style>
      .cls-1 {
        fill: url(#Gradiente_sem_nome);
      }

      .cls-1, .cls-2, .cls-3 {
        stroke-width: 0px;
      }

      .cls-2 {
        fill: url(#Gradiente_sem_nome_2);
      }

      .cls-3 {
        fill: #9e9d9c;
      }
    </style>
    <linearGradient id="Gradiente_sem_nome" data-name="Gradiente sem nome" x1="-1562.59" y1="1636.98" x2="-1559.12" y2="1636.98" gradientTransform="translate(132960.84 139390.3) scale(85.03 -85.03)" gradientUnits="userSpaceOnUse">
      <stop offset="0" stop-color="#a6daec"/>
      <stop offset=".5" stop-color="#6cc6f1"/>
      <stop offset="1" stop-color="#2e57a4"/>
    </linearGradient>
    <linearGradient id="Gradiente_sem_nome_2" data-name="Gradiente sem nome 2" x1="-1563.19" y1="1637.5" x2="-1559.72" y2="1637.5" gradientTransform="translate(132940 139372.34) scale(85.03 -85.03)" gradientUnits="userSpaceOnUse">
      <stop offset="0" stop-color="#2e57a4"/>
      <stop offset=".5" stop-color="#6cc6f1"/>
      <stop offset="1" stop-color="#a6daec"/>
    </linearGradient>
  </defs>
  <g>
    <path class="cls-1" d="m244.75,120.77c-.92,1.08-1.7,2.31-2.62,3.55-6.01,8.17-15.42,19.89-26.67,33.61l15.26,65.82-8.32,11.41-28.83-51.18c-4.78,5.55-9.56,11.25-14.49,16.96l4.93,28.52-15.72-16.03c-40.54,47.17-81.09,92.8-81.09,92.8h103.13l192.23-230h-43.93c-36.38,0-71.37,16.03-93.88,44.55Z"/>
    <path class="cls-2" d="m152.57,199.55l-21.27-13.1,32.53-1.54c3.85-4.93,8.32-10.48,13.26-16.65l-59.5-18.04,9.25-10.64,73.69.62c47.33-56.11,109.61-126.25,109.61-126.25h-103.13L15.06,243.94h43.93c36.23,0,71.07-15.88,93.57-44.4Z"/>
  </g>
  <g>
    <path class="cls-3" d="m649.57,157.61c-5.24-9.4-11.1-18.65-17.27-27.9-6.17-9.1-12.79-17.88-19.73-25.9v53.8h-18.19v-82.17h15.11c2.62,2.62,5.55,5.86,8.63,9.56,3.08,3.85,6.32,7.86,9.71,12.18,3.24,4.32,6.47,8.79,9.87,13.41,3.24,4.62,6.32,9.1,9.1,13.26v-48.56h18.34v82.17l-15.57.15h0Z"/>
    <path class="cls-3" d="m741.29,126.32c0,4.93-.77,9.4-2.16,13.41s-3.55,7.55-6.17,10.48-5.86,5.09-9.71,6.63-8.02,2.31-12.64,2.31-8.79-.77-12.49-2.31c-3.85-1.54-6.94-3.85-9.71-6.63-2.62-2.93-4.78-6.32-6.32-10.48-1.54-4.01-2.31-8.63-2.31-13.41s.77-9.4,2.31-13.41,3.7-7.4,6.47-10.33c2.77-2.77,6.01-5.09,9.71-6.63s7.86-2.31,12.33-2.31,8.63.77,12.33,2.31,6.94,3.85,9.71,6.63c2.62,2.77,4.78,6.32,6.32,10.33s2.31,8.48,2.31,13.41Zm-18.04,0c0-5.4-1.08-9.71-3.24-12.95s-5.24-4.62-9.25-4.62-7.09,1.54-9.4,4.62-3.39,7.4-3.39,12.95,1.08,9.87,3.39,12.95c2.16,3.24,5.4,4.78,9.4,4.78s7.09-1.54,9.25-4.78,3.24-7.55,3.24-12.95Z"/>
    <path class="cls-3" d="m792.47,110.9c-1.54-.31-3.39-.77-5.55-1.23s-4.47-.62-6.94-.62c-1.08,0-2.47.15-4.01.31s-2.77.46-3.55.62v47.63h-17.73v-59.04c3.08-1.08,6.94-2.16,11.25-3.08s9.1-1.54,14.34-1.54c.92,0,2.16,0,3.39.15,1.39.15,2.62.31,4.01.46s2.62.46,4.01.77,2.47.62,3.39,1.08l-2.62,14.49Z"/>
    <path class="cls-3" d="m804.34,79.61l17.73-2.77v18.34h21.12v14.8h-21.27v21.89c0,3.7.62,6.63,2,8.94,1.39,2.16,3.85,3.39,7.86,3.39,1.85,0,3.85-.15,5.86-.46,2-.31,3.85-.77,5.55-1.54l2.47,13.72c-2.16.92-4.47,1.7-7.09,2.31-2.62.62-5.86.92-9.56.92-4.78,0-8.79-.62-12.02-2-3.08-1.39-5.7-3.08-7.55-5.4s-3.24-5.24-4.01-8.48c-.77-3.39-1.08-6.94-1.08-11.1v-52.57h0Z"/>
    <path class="cls-3" d="m857.52,157.61v-89.26l17.73-2.77v29.91c1.23-.31,2.77-.77,4.62-1.08s3.7-.46,5.4-.46c5.09,0,9.25.77,12.64,2.16s6.01,3.39,8.02,5.86c2,2.47,3.39,5.55,4.32,9.1.77,3.55,1.23,7.4,1.23,11.56v35.3h-17.73v-33.3c0-5.7-.77-9.71-2.16-12.18-1.39-2.31-4.16-3.55-8.17-3.55-1.54,0-3.08.15-4.47.46-1.39.31-2.62.62-3.7.92v47.48l-17.73-.15h0Z"/>
    <path class="cls-3" d="m924.43,126.94c0-5.55.77-10.33,2.47-14.49,1.7-4.16,3.85-7.55,6.63-10.33s6.01-4.93,9.56-6.32c3.55-1.39,7.25-2.16,11.1-2.16,8.79,0,15.88,2.77,20.97,8.17s7.71,13.41,7.71,23.89c0,1.08,0,2.16-.15,3.39,0,1.23-.15,2.31-.31,3.24h-40.08c.31,3.7,2.16,6.47,5.09,8.63,3.08,2.16,7.09,3.24,12.18,3.24,3.24,0,6.47-.31,9.56-.92s5.7-1.39,7.71-2.16l2.31,14.34c-.92.46-2.16.92-3.85,1.39-1.54.46-3.39.92-5.24,1.23-2,.31-4.01.62-6.17.92s-4.47.31-6.63.31c-5.55,0-10.48-.77-14.64-2.47s-7.55-3.85-10.33-6.78-4.78-6.32-6.01-10.33c-1.08-4.01-1.85-8.17-1.85-12.8Zm41.62-6.78c0-1.54-.31-2.93-.77-4.32s-1.08-2.62-2-3.85c-.92-1.08-2-2-3.39-2.77s-3.08-1.08-5.24-1.08c-2,0-3.7.31-5.09,1.08-1.39.62-2.62,1.54-3.55,2.62s-1.7,2.47-2.16,3.85c-.46,1.39-.92,2.93-1.08,4.47h23.28Z"/>
    <path class="cls-3" d="m1034.34,110.9c-1.54-.31-3.39-.77-5.55-1.23-2.16-.46-4.47-.62-6.94-.62-1.08,0-2.47.15-4.01.31s-2.77.46-3.55.62v47.63h-17.73v-59.04c3.08-1.08,6.94-2.16,11.25-3.08s9.1-1.54,14.34-1.54c.92,0,2.16,0,3.39.15,1.39.15,2.62.31,4.01.46,1.39.15,2.62.46,4.01.77,1.39.31,2.47.62,3.39,1.08l-2.62,14.49Z"/>
    <path class="cls-3" d="m1046.83,97.34c3.08-.92,6.94-1.7,11.56-2.47,4.78-.77,9.71-1.08,14.95-1.08s9.71.77,13.26,2.16,6.32,3.39,8.32,5.86c2,2.47,3.55,5.55,4.32,9.1.92,3.55,1.39,7.4,1.39,11.56v35.3h-17.73v-33.14c0-5.7-.77-9.71-2.31-12.18-1.54-2.31-4.32-3.55-8.48-3.55-1.23,0-2.62,0-4.01.15-1.39.15-2.62.31-3.85.46v48.1h-17.73l.31-60.28h0Z"/>
  </g>
  <g>
    <path class="cls-3" d="m436.37,274.93c-.92-2.77-1.85-5.86-2.93-8.79-1.08-3.08-2.16-6.01-3.08-8.94h-32.06c-1.08,2.93-2.16,6.01-3.08,9.1-1.08,3.08-2,6.01-2.93,8.79h-19.27c3.08-8.79,6.01-17.11,8.79-24.51,2.77-7.55,5.55-14.64,8.17-21.27s5.24-12.95,7.86-18.96c2.62-6.01,5.24-11.87,8.02-17.42h17.57c2.77,5.7,5.4,11.56,8.02,17.42,2.62,6.01,5.24,12.33,7.86,18.96s5.4,13.72,8.17,21.27c2.77,7.55,5.7,15.72,8.79,24.51h-19.89v-.15Zm-22.2-63.67c-.46,1.23-1.08,2.77-1.85,4.93s-1.7,4.47-2.77,7.09c-1.08,2.62-2.16,5.7-3.39,8.94-1.23,3.24-2.47,6.63-3.85,10.17h23.43c-1.23-3.55-2.47-6.94-3.7-10.17s-2.31-6.17-3.39-8.94-2-5.09-2.77-7.09c-.62-2-1.23-3.7-1.7-4.93Z"/>
    <path class="cls-3" d="m484.93,194.46c0,3.24-1.08,5.86-3.08,7.71-2.16,1.85-4.62,2.77-7.4,2.77s-5.24-.92-7.4-2.77-3.08-4.47-3.08-7.71,1.08-5.86,3.08-7.71c2.16-1.85,4.62-2.77,7.4-2.77s5.24.92,7.4,2.77c2,2,3.08,4.47,3.08,7.71Zm-1.7,80.47h-17.73v-62.43h17.73v62.43Z"/>
    <path class="cls-3" d="m537.5,228.22c-1.54-.31-3.39-.77-5.55-1.23s-4.47-.62-6.94-.62c-1.08,0-2.47.15-4.01.31s-2.77.46-3.55.62v47.63h-17.73v-59.04c3.08-1.08,6.94-2.16,11.25-3.08,4.32-1.08,9.1-1.54,14.34-1.54.92,0,2.16,0,3.39.15,1.39.15,2.62.31,4.01.46s2.62.46,4.01.77,2.47.62,3.39,1.08l-2.62,14.49Z"/>
    <path class="cls-3" d="m545.67,243.79c0-4.47.77-8.79,2.16-12.8s3.55-7.4,6.32-10.48c2.77-2.93,6.17-5.24,10.02-7.09,4.01-1.7,8.48-2.62,13.57-2.62,3.39,0,6.32.31,9.1.92,2.77.62,5.4,1.39,8.02,2.47l-3.7,14.18c-1.7-.62-3.55-1.23-5.4-1.7s-4.16-.77-6.63-.77c-5.24,0-9.1,1.7-11.72,4.93s-3.85,7.55-3.85,12.8c0,5.55,1.23,10.02,3.55,13.1,2.47,3.08,6.63,4.62,12.64,4.62,2.16,0,4.47-.15,6.94-.62,2.47-.31,4.62-1.08,6.78-1.85l2.47,14.49c-2,.92-4.62,1.7-7.71,2.31s-6.47.92-10.17.92c-5.7,0-10.64-.92-14.64-2.47-4.16-1.7-7.55-4.01-10.17-6.94s-4.62-6.32-5.86-10.33c-1.08-4.16-1.7-8.48-1.7-13.1Z"/>
    <path class="cls-3" d="m645.56,228.22c-1.54-.31-3.39-.77-5.55-1.23s-4.47-.62-6.94-.62c-1.08,0-2.47.15-4.01.31-1.54.15-2.77.46-3.55.62v47.63h-17.73v-59.04c3.08-1.08,6.94-2.16,11.25-3.08,4.32-1.08,9.1-1.54,14.34-1.54.92,0,2.16,0,3.39.15,1.39.15,2.62.31,4.01.46s2.62.46,4.01.77,2.47.62,3.39,1.08l-2.62,14.49Z"/>
    <path class="cls-3" d="m679.32,210.95c5.24,0,9.56.62,13.1,1.7,3.55,1.23,6.32,2.93,8.32,5.09,2.16,2.16,3.55,4.93,4.47,8.02s1.39,6.63,1.39,10.48v36.69c-2.47.62-6.01,1.23-10.48,2s-10.02,1.08-16.34,1.08c-4.01,0-7.71-.31-10.95-1.08s-6.17-1.85-8.48-3.55-4.16-3.7-5.4-6.32c-1.23-2.62-1.85-5.86-1.85-9.56s.77-6.78,2.16-9.25,3.39-4.47,5.86-6.01c2.47-1.54,5.24-2.62,8.48-3.24,3.08-.62,6.47-1.08,9.87-1.08,2.31,0,4.32.15,6.17.31,1.7.15,3.24.46,4.32.77v-1.7c0-3.08-.92-5.4-2.77-7.25-1.85-1.85-4.93-2.77-9.4-2.77-3.08,0-6.01.15-8.94.62-2.93.46-5.4,1.08-7.55,1.85l-2.31-14.18c1.08-.31,2.31-.62,3.85-1.08,1.54-.31,3.24-.62,5.09-.92,1.85-.31,3.7-.46,5.7-.77,1.7.15,3.55.15,5.7.15Zm1.39,51.64c1.7,0,3.39,0,4.93-.15,1.54,0,2.77-.15,3.85-.31v-13.41c-.77-.15-1.7-.31-3.24-.46-1.39-.15-2.77-.31-3.85-.31-1.7,0-3.24.15-4.62.31-1.39.15-2.77.62-3.85,1.08-1.08.62-2,1.39-2.62,2.31-.62.92-.92,2.16-.92,3.55,0,2.77.92,4.62,2.77,5.7,1.85,1.08,4.32,1.7,7.55,1.7Z"/>
    <path class="cls-3" d="m749.46,182.9c3.39,0,6.32.31,9.1,1.08,2.77.62,4.93,1.39,6.32,2l-3.39,14.18c-1.54-.77-3.24-1.23-5.24-1.54-1.85-.31-3.55-.46-5.24-.46-2.16,0-3.85.31-5.4.92s-2.62,1.39-3.39,2.47-1.39,2.31-1.7,3.7-.46,2.93-.46,4.62v3.08h21.89v14.64h-21.89v47.33h-17.73v-65.67c0-8.02,2.31-14.49,6.78-19.27,4.78-4.78,11.41-7.09,20.35-7.09Z"/>
    <path class="cls-3" d="m771.97,196.92l17.73-2.77v18.34h21.12v14.64h-21.27v21.89c0,3.7.62,6.63,2,8.94,1.39,2.16,3.85,3.39,7.86,3.39,1.85,0,3.85-.15,5.86-.46s3.85-.77,5.55-1.54l2.47,13.72c-2.16.92-4.47,1.7-7.09,2.31-2.62.62-5.86.92-9.56.92-4.78,0-8.79-.62-12.02-2-3.08-1.39-5.7-3.08-7.55-5.4-1.85-2.31-3.24-5.24-4.01-8.48-.77-3.39-1.08-6.94-1.08-11.1v-52.41h0Z"/>
    <path class="cls-3" d="m909.78,259.05v15.88h-54.88v-82.17h18.5v66.29h36.38Z"/>
    <path class="cls-3" d="m944.16,210.95c5.24,0,9.56.62,13.1,1.7,3.55,1.23,6.32,2.93,8.32,5.09,2.16,2.16,3.55,4.93,4.47,8.02.92,3.08,1.39,6.63,1.39,10.48v36.69c-2.47.62-6.01,1.23-10.48,2-4.47.77-10.02,1.08-16.34,1.08-4.01,0-7.71-.31-10.95-1.08s-6.17-1.85-8.48-3.55-4.16-3.7-5.4-6.32c-1.23-2.62-1.85-5.86-1.85-9.56s.77-6.78,2.16-9.25,3.39-4.47,5.86-6.01,5.24-2.62,8.48-3.24c3.08-.62,6.47-1.08,9.87-1.08,2.31,0,4.32.15,6.17.31,1.7.15,3.24.46,4.32.77v-1.7c0-3.08-.92-5.4-2.77-7.25s-4.93-2.77-9.4-2.77c-3.08,0-6.01.15-8.94.62-2.93.46-5.4,1.08-7.55,1.85l-2.31-14.18c1.08-.31,2.31-.62,3.85-1.08,1.54-.31,3.24-.62,5.09-.92,1.85-.31,3.7-.46,5.7-.77s3.7.15,5.7.15Zm1.39,51.64c1.7,0,3.39,0,4.93-.15,1.54,0,2.77-.15,3.85-.31v-13.41c-.77-.15-1.7-.31-3.24-.46-1.39-.15-2.77-.31-3.85-.31-1.7,0-3.24.15-4.62.31-1.39.15-2.77.62-3.85,1.08-1.08.62-2,1.39-2.62,2.31s-.92,2.16-.92,3.55c0,2.77.92,4.62,2.77,5.7,1.85,1.08,4.32,1.7,7.55,1.7Z"/>
    <path class="cls-3" d="m1045.29,243.79c0,4.93-.77,9.4-2.16,13.57-1.39,4.01-3.55,7.4-6.32,10.33-2.77,2.77-6.17,5.09-10.17,6.63s-8.63,2.31-13.72,2.31c-2.16,0-4.32-.15-6.63-.31-2.31-.15-4.62-.46-6.94-.77s-4.47-.77-6.47-1.08c-2-.46-3.85-.92-5.4-1.39v-87.25l17.73-2.77v31.14c2-.92,4.01-1.54,6.17-2s4.47-.77,6.94-.77c4.47,0,8.32.77,11.72,2.31,3.39,1.54,6.32,3.7,8.48,6.63,2.31,2.77,4.01,6.32,5.24,10.33,1.08,3.7,1.54,8.17,1.54,13.1Zm-17.88-.46c0-11.41-4.16-17.11-12.64-17.11-1.85,0-3.55.31-5.4.77-1.7.46-3.24,1.08-4.32,1.7v32.22c.92.15,2,.31,3.39.46s2.77.15,4.32.15c4.78,0,8.48-1.7,10.95-4.93,2.31-3.55,3.7-7.86,3.7-13.26Z"/>
    <path class="cls-3" d="m1076.89,262.29c3.24,0,5.55-.31,6.94-.92s2-1.85,2-3.7c0-1.39-.92-2.62-2.62-3.7-1.7-1.08-4.32-2.31-8.02-3.55-2.77-1.08-5.24-2.16-7.55-3.24-2.31-1.08-4.16-2.47-5.7-4.01s-2.77-3.39-3.7-5.55c-.92-2.16-1.39-4.78-1.39-7.71,0-5.86,2.16-10.48,6.47-13.87s10.33-5.09,17.88-5.09c3.85,0,7.4.31,10.95,1.08,3.55.62,6.32,1.39,8.32,2.16l-3.08,13.72c-2-.77-4.32-1.39-6.63-1.85-2.47-.62-5.09-.77-8.17-.77-5.55,0-8.32,1.54-8.32,4.62,0,.77.15,1.39.31,1.85s.77,1.08,1.39,1.54c.77.46,1.7,1.08,2.93,1.7,1.23.62,2.77,1.23,4.62,2,3.85,1.39,7.09,2.77,9.56,4.16s4.47,2.93,6.01,4.47,2.47,3.39,3.08,5.4.92,4.32.92,6.94c0,6.17-2.31,10.79-6.94,14.03s-11.25,4.78-19.58,4.78c-5.55,0-10.17-.46-13.87-1.39s-6.17-1.7-7.71-2.31l2.93-14.34c3.08,1.23,6.01,2.16,9.25,2.77,3.55.46,6.63.77,9.71.77Z"/>
  </g>
</svg>