<?xml version="1.0" encoding="utf-8"?>
<!-- Generator: Adobe Illustrator 27.9.4, SVG Export Plug-In . SVG Version: 9.03 Build 54784)  -->
<svg version="1.1" id="Camada_1" xmlns="http://www.w3.org/2000/svg" xmlns:xlink="http://www.w3.org/1999/xlink" x="0px" y="0px"
	 viewBox="0 0 719.5 200" style="enable-background:new 0 0 719.5 200;" xml:space="preserve">
<style type="text/css">
	.st0{fill:none;}
	.st1{fill:url(#SVGID_1_);}
	.st2{fill:url(#SVGID_00000119814364996468497770000004232055047504118420_);}
	.st3{fill:#9E9D9C;}
</style>
<g>
	<g>
		<path class="st0" d="M245.2,46.1L245.2,46.1L245.2,46.1z"/>
		<path class="st0" d="M198.2,5.7L198.2,5.7L198.2,5.7z"/>
		
			<linearGradient id="SVGID_1_" gradientUnits="userSpaceOnUse" x1="-715.4454" y1="-75.3652" x2="-713.1936" y2="-75.3652" gradientTransform="matrix(85.0343 0 0 85.0343 60891.0977 6529.3486)">
			<stop  offset="0" style="stop-color:#A6DAEC"/>
			<stop  offset="0.4973" style="stop-color:#6CC6F1"/>
			<stop  offset="1" style="stop-color:#2E57A4"/>
		</linearGradient>
		<path class="st1" d="M155.8,75c-0.6,0.7-1.1,1.5-1.7,2.3c-3.9,5.3-10,12.9-17.3,21.8l9.9,42.7l-5.4,7.4L122.6,116
			c-3.1,3.6-6.2,7.3-9.4,11l3.2,18.5l-10.2-10.4c-26.3,30.6-52.6,60.2-52.6,60.2h66.9L245.2,46.1l0,0h-28.5
			C193.1,46.1,170.4,56.5,155.8,75z"/>
		
			<linearGradient id="SVGID_00000032614755894251886640000009721617720378736029_" gradientUnits="userSpaceOnUse" x1="-715.7521" y1="-75.6296" x2="-713.5004" y2="-75.6296" gradientTransform="matrix(85.0343 0 0 85.0343 60870.2539 6511.3916)">
			<stop  offset="0" style="stop-color:#2E57A4"/>
			<stop  offset="0.5027" style="stop-color:#6CC6F1"/>
			<stop  offset="1" style="stop-color:#A6DAEC"/>
		</linearGradient>
		<path style="fill:url(#SVGID_00000032614755894251886640000009721617720378736029_);" d="M96,126.1l-13.8-8.5l21.1-1
			c2.5-3.2,5.4-6.8,8.6-10.8L73.3,94.1l6-6.9l47.8,0.4c30.7-36.4,71.1-81.9,71.1-81.9l0,0h-66.9L6.8,154.9h28.5
			C58.8,154.9,81.4,144.6,96,126.1z"/>
	</g>
	<g>
		<path class="st3" d="M418.4,98.9c-3.4-6.1-7.2-12.1-11.2-18.1c-4-5.9-8.3-11.6-12.8-16.8v34.9h-11.8V45.6h9.8
			c1.7,1.7,3.6,3.8,5.6,6.2c2,2.5,4.1,5.1,6.3,7.9c2.1,2.8,4.2,5.7,6.4,8.7c2.1,3,4.1,5.9,5.9,8.6V45.5h11.9v53.3L418.4,98.9
			L418.4,98.9z"/>
		<path class="st3" d="M477.9,78.6c0,3.2-0.5,6.1-1.4,8.7c-0.9,2.6-2.3,4.9-4,6.8c-1.7,1.9-3.8,3.3-6.3,4.3c-2.5,1-5.2,1.5-8.2,1.5
			c-3,0-5.7-0.5-8.1-1.5c-2.5-1-4.5-2.5-6.3-4.3c-1.7-1.9-3.1-4.1-4.1-6.8c-1-2.6-1.5-5.6-1.5-8.7s0.5-6.1,1.5-8.7
			c1-2.6,2.4-4.8,4.2-6.7c1.8-1.8,3.9-3.3,6.3-4.3s5.1-1.5,8-1.5c2.9,0,5.6,0.5,8,1.5s4.5,2.5,6.3,4.3c1.7,1.8,3.1,4.1,4.1,6.7
			C477.4,72.5,477.9,75.4,477.9,78.6z M466.2,78.6c0-3.5-0.7-6.3-2.1-8.4s-3.4-3-6-3s-4.6,1-6.1,3s-2.2,4.8-2.2,8.4
			c0,3.5,0.7,6.4,2.2,8.4c1.4,2.1,3.5,3.1,6.1,3.1s4.6-1,6-3.1C465.5,84.9,466.2,82.1,466.2,78.6z"/>
		<path class="st3" d="M511.1,68.6c-1-0.2-2.2-0.5-3.6-0.8c-1.4-0.3-2.9-0.4-4.5-0.4c-0.7,0-1.6,0.1-2.6,0.2c-1,0.1-1.8,0.3-2.3,0.4
			v30.9h-11.5V60.6c2-0.7,4.5-1.4,7.3-2c2.8-0.6,5.9-1,9.3-1c0.6,0,1.4,0,2.2,0.1c0.9,0.1,1.7,0.2,2.6,0.3c0.9,0.1,1.7,0.3,2.6,0.5
			c0.9,0.2,1.6,0.4,2.2,0.7L511.1,68.6z"/>
		<path class="st3" d="M518.8,48.3l11.5-1.8v11.9H544V68h-13.8v14.2c0,2.4,0.4,4.3,1.3,5.8c0.9,1.4,2.5,2.2,5.1,2.2
			c1.2,0,2.5-0.1,3.8-0.3c1.3-0.2,2.5-0.5,3.6-1l1.6,8.9c-1.4,0.6-2.9,1.1-4.6,1.5c-1.7,0.4-3.8,0.6-6.2,0.6c-3.1,0-5.7-0.4-7.8-1.3
			c-2-0.9-3.7-2-4.9-3.5c-1.2-1.5-2.1-3.4-2.6-5.5c-0.5-2.2-0.7-4.5-0.7-7.2L518.8,48.3L518.8,48.3z"/>
		<path class="st3" d="M553.3,98.9V41l11.5-1.8v19.4c0.8-0.2,1.8-0.5,3-0.7c1.2-0.2,2.4-0.3,3.5-0.3c3.3,0,6,0.5,8.2,1.4
			c2.2,0.9,3.9,2.2,5.2,3.8c1.3,1.6,2.2,3.6,2.8,5.9c0.5,2.3,0.8,4.8,0.8,7.5v22.9h-11.5V77.5c0-3.7-0.5-6.3-1.4-7.9
			c-0.9-1.5-2.7-2.3-5.3-2.3c-1,0-2,0.1-2.9,0.3c-0.9,0.2-1.7,0.4-2.4,0.6v30.8L553.3,98.9L553.3,98.9z"/>
		<path class="st3" d="M596.7,79c0-3.6,0.5-6.7,1.6-9.4c1.1-2.7,2.5-4.9,4.3-6.7s3.9-3.2,6.2-4.1c2.3-0.9,4.7-1.4,7.2-1.4
			c5.7,0,10.3,1.8,13.6,5.3c3.3,3.5,5,8.7,5,15.5c0,0.7,0,1.4-0.1,2.2c0,0.8-0.1,1.5-0.2,2.1h-26c0.2,2.4,1.4,4.2,3.3,5.6
			c2,1.4,4.6,2.1,7.9,2.1c2.1,0,4.2-0.2,6.2-0.6c2-0.4,3.7-0.9,5-1.4l1.5,9.3c-0.6,0.3-1.4,0.6-2.5,0.9c-1,0.3-2.2,0.6-3.4,0.8
			c-1.3,0.2-2.6,0.4-4,0.6c-1.4,0.2-2.9,0.2-4.3,0.2c-3.6,0-6.8-0.5-9.5-1.6c-2.7-1.1-4.9-2.5-6.7-4.4c-1.8-1.9-3.1-4.1-3.9-6.7
			C597.2,84.7,596.7,82,596.7,79z M623.7,74.6c0-1-0.2-1.9-0.5-2.8s-0.7-1.7-1.3-2.5c-0.6-0.7-1.3-1.3-2.2-1.8
			c-0.9-0.5-2-0.7-3.4-0.7c-1.3,0-2.4,0.2-3.3,0.7c-0.9,0.4-1.7,1-2.3,1.7c-0.6,0.7-1.1,1.6-1.4,2.5c-0.3,0.9-0.6,1.9-0.7,2.9
			L623.7,74.6L623.7,74.6z"/>
		<path class="st3" d="M668,68.6c-1-0.2-2.2-0.5-3.6-0.8c-1.4-0.3-2.9-0.4-4.5-0.4c-0.7,0-1.6,0.1-2.6,0.2c-1,0.1-1.8,0.3-2.3,0.4
			v30.9h-11.5V60.6c2-0.7,4.5-1.4,7.3-2c2.8-0.6,5.9-1,9.3-1c0.6,0,1.4,0,2.2,0.1c0.9,0.1,1.7,0.2,2.6,0.3c0.9,0.1,1.7,0.3,2.6,0.5
			c0.9,0.2,1.6,0.4,2.2,0.7L668,68.6z"/>
		<path class="st3" d="M676.1,59.8c2-0.6,4.5-1.1,7.5-1.6c3.1-0.5,6.3-0.7,9.7-0.7c3.4,0,6.3,0.5,8.6,1.4c2.3,0.9,4.1,2.2,5.4,3.8
			c1.3,1.6,2.3,3.6,2.8,5.9c0.6,2.3,0.9,4.8,0.9,7.5v22.9h-11.5V77.5c0-3.7-0.5-6.3-1.5-7.9c-1-1.5-2.8-2.3-5.5-2.3
			c-0.8,0-1.7,0-2.6,0.1c-0.9,0.1-1.7,0.2-2.5,0.3v31.2h-11.5L676.1,59.8L676.1,59.8z"/>
	</g>
	<g>
		<path class="st3" d="M280.1,175c-0.6-1.8-1.2-3.8-1.9-5.7c-0.7-2-1.4-3.9-2-5.8h-20.8c-0.7,1.9-1.4,3.9-2,5.9
			c-0.7,2-1.3,3.9-1.9,5.7h-12.5c2-5.7,3.9-11.1,5.7-15.9c1.8-4.9,3.6-9.5,5.3-13.8c1.7-4.3,3.4-8.4,5.1-12.3
			c1.7-3.9,3.4-7.7,5.2-11.3h11.4c1.8,3.7,3.5,7.5,5.2,11.3c1.7,3.9,3.4,8,5.1,12.3c1.7,4.3,3.5,8.9,5.3,13.8
			c1.8,4.9,3.7,10.2,5.7,15.9H280.1z M265.7,133.7c-0.3,0.8-0.7,1.8-1.2,3.2s-1.1,2.9-1.8,4.6c-0.7,1.7-1.4,3.7-2.2,5.8
			c-0.8,2.1-1.6,4.3-2.5,6.6h15.2c-0.8-2.3-1.6-4.5-2.4-6.6c-0.8-2.1-1.5-4-2.2-5.8s-1.3-3.3-1.8-4.6
			C266.4,135.6,266,134.5,265.7,133.7z"/>
		<path class="st3" d="M311.6,122.8c0,2.1-0.7,3.8-2,5c-1.4,1.2-3,1.8-4.8,1.8s-3.4-0.6-4.8-1.8c-1.4-1.2-2-2.9-2-5
			c0-2.1,0.7-3.8,2-5c1.4-1.2,3-1.8,4.8-1.8s3.4,0.6,4.8,1.8C310.9,119.1,311.6,120.7,311.6,122.8z M310.5,175H299v-40.5h11.5V175z"
			/>
		<path class="st3" d="M345.7,144.7c-1-0.2-2.2-0.5-3.6-0.8c-1.4-0.3-2.9-0.4-4.5-0.4c-0.7,0-1.6,0.1-2.6,0.2s-1.8,0.3-2.3,0.4V175
			h-11.5v-38.3c2-0.7,4.5-1.4,7.3-2c2.8-0.7,5.9-1,9.3-1c0.6,0,1.4,0,2.2,0.1c0.9,0.1,1.7,0.2,2.6,0.3c0.9,0.1,1.7,0.3,2.6,0.5
			c0.9,0.2,1.6,0.4,2.2,0.7L345.7,144.7z"/>
		<path class="st3" d="M351,154.8c0-2.9,0.5-5.7,1.4-8.3c0.9-2.6,2.3-4.8,4.1-6.8c1.8-1.9,4-3.4,6.5-4.6c2.6-1.1,5.5-1.7,8.8-1.7
			c2.2,0,4.1,0.2,5.9,0.6c1.8,0.4,3.5,0.9,5.2,1.6l-2.4,9.2c-1.1-0.4-2.3-0.8-3.5-1.1s-2.7-0.5-4.3-0.5c-3.4,0-5.9,1.1-7.6,3.2
			s-2.5,4.9-2.5,8.3c0,3.6,0.8,6.5,2.3,8.5c1.6,2,4.3,3,8.2,3c1.4,0,2.9-0.1,4.5-0.4c1.6-0.2,3-0.7,4.4-1.2l1.6,9.4
			c-1.3,0.6-3,1.1-5,1.5c-2,0.4-4.2,0.6-6.6,0.6c-3.7,0-6.9-0.6-9.5-1.6c-2.7-1.1-4.9-2.6-6.6-4.5c-1.7-1.9-3-4.1-3.8-6.7
			C351.4,160.6,351,157.8,351,154.8z"/>
		<path class="st3" d="M415.8,144.7c-1-0.2-2.2-0.5-3.6-0.8c-1.4-0.3-2.9-0.4-4.5-0.4c-0.7,0-1.6,0.1-2.6,0.2
			c-1,0.1-1.8,0.3-2.3,0.4V175h-11.5v-38.3c2-0.7,4.5-1.4,7.3-2c2.8-0.7,5.9-1,9.3-1c0.6,0,1.4,0,2.2,0.1c0.9,0.1,1.7,0.2,2.6,0.3
			c0.9,0.1,1.7,0.3,2.6,0.5c0.9,0.2,1.6,0.4,2.2,0.7L415.8,144.7z"/>
		<path class="st3" d="M437.7,133.5c3.4,0,6.2,0.4,8.5,1.1c2.3,0.8,4.1,1.9,5.4,3.3c1.4,1.4,2.3,3.2,2.9,5.2c0.6,2,0.9,4.3,0.9,6.8
			v23.8c-1.6,0.4-3.9,0.8-6.8,1.3c-2.9,0.5-6.5,0.7-10.6,0.7c-2.6,0-5-0.2-7.1-0.7c-2.1-0.5-4-1.2-5.5-2.3c-1.5-1.1-2.7-2.4-3.5-4.1
			c-0.8-1.7-1.2-3.8-1.2-6.2c0-2.4,0.5-4.4,1.4-6s2.2-2.9,3.8-3.9c1.6-1,3.4-1.7,5.5-2.1c2-0.4,4.2-0.7,6.4-0.7c1.5,0,2.8,0.1,4,0.2
			c1.1,0.1,2.1,0.3,2.8,0.5v-1.1c0-2-0.6-3.5-1.8-4.7c-1.2-1.2-3.2-1.8-6.1-1.8c-2,0-3.9,0.1-5.8,0.4c-1.9,0.3-3.5,0.7-4.9,1.2
			l-1.5-9.2c0.7-0.2,1.5-0.4,2.5-0.7c1-0.2,2.1-0.4,3.3-0.6c1.2-0.2,2.4-0.3,3.7-0.5C435.1,133.5,436.3,133.5,437.7,133.5z
			 M438.6,167c1.1,0,2.2,0,3.2-0.1c1,0,1.8-0.1,2.5-0.2V158c-0.5-0.1-1.1-0.2-2.1-0.3c-0.9-0.1-1.8-0.2-2.5-0.2
			c-1.1,0-2.1,0.1-3,0.2c-0.9,0.1-1.8,0.4-2.5,0.7c-0.7,0.4-1.3,0.9-1.7,1.5c-0.4,0.6-0.6,1.4-0.6,2.3c0,1.8,0.6,3,1.8,3.7
			C434.9,166.6,436.5,167,438.6,167z"/>
		<path class="st3" d="M483.2,115.3c2.2,0,4.1,0.2,5.9,0.7c1.8,0.4,3.2,0.9,4.1,1.3l-2.2,9.2c-1-0.5-2.1-0.8-3.4-1
			c-1.2-0.2-2.3-0.3-3.4-0.3c-1.4,0-2.5,0.2-3.5,0.6s-1.7,0.9-2.2,1.6c-0.5,0.7-0.9,1.5-1.1,2.4s-0.3,1.9-0.3,3v2h14.2v9.5h-14.2
			V175h-11.5v-42.6c0-5.2,1.5-9.4,4.4-12.5C473.1,116.8,477.4,115.3,483.2,115.3z"/>
		<path class="st3" d="M497.8,124.4l11.5-1.8v11.9H523v9.5h-13.8v14.2c0,2.4,0.4,4.3,1.3,5.8c0.9,1.4,2.5,2.2,5.1,2.2
			c1.2,0,2.5-0.1,3.8-0.3c1.3-0.2,2.5-0.5,3.6-1l1.6,8.9c-1.4,0.6-2.9,1.1-4.6,1.5c-1.7,0.4-3.8,0.6-6.2,0.6c-3.1,0-5.7-0.4-7.8-1.3
			c-2-0.9-3.7-2-4.9-3.5c-1.2-1.5-2.1-3.4-2.6-5.5c-0.5-2.2-0.7-4.5-0.7-7.2L497.8,124.4L497.8,124.4z"/>
		<path class="st3" d="M587.2,164.7V175h-35.6v-53.3h12v43H587.2z"/>
		<path class="st3" d="M609.5,133.5c3.4,0,6.2,0.4,8.5,1.1c2.3,0.8,4.1,1.9,5.4,3.3c1.4,1.4,2.3,3.2,2.9,5.2c0.6,2,0.9,4.3,0.9,6.8
			v23.8c-1.6,0.4-3.9,0.8-6.8,1.3c-2.9,0.5-6.5,0.7-10.6,0.7c-2.6,0-5-0.2-7.1-0.7c-2.1-0.5-4-1.2-5.5-2.3c-1.5-1.1-2.7-2.4-3.5-4.1
			c-0.8-1.7-1.2-3.8-1.2-6.2c0-2.4,0.5-4.4,1.4-6s2.2-2.9,3.8-3.9c1.6-1,3.4-1.7,5.5-2.1c2-0.4,4.2-0.7,6.4-0.7c1.5,0,2.8,0.1,4,0.2
			c1.1,0.1,2.1,0.3,2.8,0.5v-1.1c0-2-0.6-3.5-1.8-4.7c-1.2-1.2-3.2-1.8-6.1-1.8c-2,0-3.9,0.1-5.8,0.4c-1.9,0.3-3.5,0.7-4.9,1.2
			l-1.5-9.2c0.7-0.2,1.5-0.4,2.5-0.7c1-0.2,2.1-0.4,3.3-0.6c1.2-0.2,2.4-0.3,3.7-0.5S608.2,133.5,609.5,133.5z M610.4,167
			c1.1,0,2.2,0,3.2-0.1c1,0,1.8-0.1,2.5-0.2V158c-0.5-0.1-1.1-0.2-2.1-0.3c-0.9-0.1-1.8-0.2-2.5-0.2c-1.1,0-2.1,0.1-3,0.2
			c-0.9,0.1-1.8,0.4-2.5,0.7c-0.7,0.4-1.3,0.9-1.7,1.5c-0.4,0.6-0.6,1.4-0.6,2.3c0,1.8,0.6,3,1.8,3.7
			C606.7,166.6,608.3,167,610.4,167z"/>
		<path class="st3" d="M675.1,154.8c0,3.2-0.5,6.1-1.4,8.8c-0.9,2.6-2.3,4.8-4.1,6.7c-1.8,1.8-4,3.3-6.6,4.3c-2.6,1-5.6,1.5-8.9,1.5
			c-1.4,0-2.8-0.1-4.3-0.2c-1.5-0.1-3-0.3-4.5-0.5c-1.5-0.2-2.9-0.5-4.2-0.7c-1.3-0.3-2.5-0.6-3.5-0.9v-56.6l11.5-1.8v20.2
			c1.3-0.6,2.6-1,4-1.3c1.4-0.3,2.9-0.5,4.5-0.5c2.9,0,5.4,0.5,7.6,1.5c2.2,1,4.1,2.4,5.5,4.3c1.5,1.8,2.6,4.1,3.4,6.7
			C674.8,148.7,675.1,151.6,675.1,154.8z M663.5,154.5c0-7.4-2.7-11.1-8.2-11.1c-1.2,0-2.3,0.2-3.5,0.5c-1.1,0.3-2.1,0.7-2.8,1.1
			v20.9c0.6,0.1,1.3,0.2,2.2,0.3c0.9,0.1,1.8,0.1,2.8,0.1c3.1,0,5.5-1.1,7.1-3.2C662.6,160.8,663.5,158,663.5,154.5z"/>
		<path class="st3" d="M695.6,166.8c2.1,0,3.6-0.2,4.5-0.6s1.3-1.2,1.3-2.4c0-0.9-0.6-1.7-1.7-2.4c-1.1-0.7-2.8-1.5-5.2-2.3
			c-1.8-0.7-3.4-1.4-4.9-2.1c-1.5-0.7-2.7-1.6-3.7-2.6c-1-1-1.8-2.2-2.4-3.6c-0.6-1.4-0.9-3.1-0.9-5c0-3.8,1.4-6.8,4.2-9
			c2.8-2.2,6.7-3.3,11.6-3.3c2.5,0,4.8,0.2,7.1,0.7c2.3,0.4,4.1,0.9,5.4,1.4l-2,8.9c-1.3-0.5-2.8-0.9-4.3-1.2
			c-1.6-0.4-3.3-0.5-5.3-0.5c-3.6,0-5.4,1-5.4,3c0,0.5,0.1,0.9,0.2,1.2s0.5,0.7,0.9,1c0.5,0.3,1.1,0.7,1.9,1.1
			c0.8,0.4,1.8,0.8,3,1.3c2.5,0.9,4.6,1.8,6.2,2.7s2.9,1.9,3.9,2.9c1,1,1.6,2.2,2,3.5c0.4,1.3,0.6,2.8,0.6,4.5c0,4-1.5,7-4.5,9.1
			s-7.3,3.1-12.7,3.1c-3.6,0-6.6-0.3-9-0.9s-4-1.1-5-1.5l1.9-9.3c2,0.8,3.9,1.4,6,1.8C691.6,166.6,693.6,166.8,695.6,166.8z"/>
	</g>
</g>
</svg>
