<?xml version="1.0" encoding="utf-8"?>
<!-- Generator: Adobe Illustrator 27.9.4, SVG Export Plug-In . SVG Version: 9.03 Build 54784)  -->
<svg version="1.1" id="Camada_1" xmlns="http://www.w3.org/2000/svg" xmlns:xlink="http://www.w3.org/1999/xlink" x="0px" y="0px"
	 viewBox="0 0 1088 687.96" style="enable-background:new 0 0 1088 687.96;" xml:space="preserve">
<style type="text/css">
	.st0{fill:#F4F7FA;}
	.st1{fill:#BFC6D1;}
	.st2{fill:#D8DEE8;}
	.st3{fill:#97A6B7;}
	.st4{fill:#2F599F;}
	.st5{fill:url(#SVGID_1_);}
	.st6{opacity:0.3;fill:#D8DEE8;}
	.st7{fill:#FFFFFF;}
	.st8{fill:url(#SVGID_00000088854299004391697940000004688035872197352597_);}
	.st9{fill:url(#SVGID_00000165924218724944820150000005876382908046312593_);}
	.st10{fill:url(#SVGID_00000046317011976102854960000012848030230906759076_);}
	.st11{fill:url(#SVGID_00000016792098127732501670000009874484141600025493_);}
	.st12{fill:url(#SVGID_00000065795066998662907380000008927617482762879111_);}
	.st13{fill:url(#SVGID_00000146483724752238097370000000363442467264199336_);}
	.st14{fill:url(#SVGID_00000168823696119763057630000000816556508230405281_);}
	.st15{fill:url(#SVGID_00000136384448649531220890000001694198714466539680_);}
	.st16{fill:url(#SVGID_00000147928057695798993250000012392327794305377687_);}
	.st17{fill:url(#SVGID_00000064347496375657608220000010698292317524490399_);}
</style>
<g>
	<path class="st0" d="M472.67,28.54C345.09,30.08,147.7,63.16,90.88,148.18c-19.84,29.69-18.5,73.35-15.81,160.65
		c0.79,25.66,2.1,63.06,11.3,109.47c19.1,96.4,32.11,162.03,81.33,200.24c123.33,95.75,568.82,92.98,759.06-79.4
		c103.78-94.04,119.74-227.81,24.85-338.36C847.12,79.06,643.47,26.48,472.67,28.54z"/>
	<g id="Document_management_soft">
		<g>
			<path class="st1" d="M745.76,114.57c7.08,0.6,13.34-5.13,13.98-12.8c0.65-7.66-4.57-14.36-11.65-14.95
				c-0.37-0.03-0.73-0.03-1.09-0.03c-0.34-3.96-0.95-7.83-1.84-11.6c0.34-0.14,0.67-0.28,1-0.45c6.45-3.32,9.27-11.62,6.29-18.56
				c-2.98-6.93-10.63-9.87-17.08-6.55c-0.34,0.17-0.66,0.37-0.98,0.57c-2.11-3.18-4.44-6.18-6.98-8.96
				c0.23-0.31,0.47-0.62,0.68-0.95c4.1-6.34,2.71-15-3.09-19.35c-5.81-4.35-13.84-2.73-17.93,3.6c-0.21,0.32-0.4,0.66-0.58,1
				c-3.28-1.58-6.7-2.89-10.24-3.92c0.06-0.39,0.12-0.77,0.15-1.17c0.65-7.66,2.04-16.32-5.04-16.8
				c-16.39-1.12-19.94,6.98-20.59,14.64c-0.03,0.4-0.04,0.79-0.04,1.18c-3.66,0.42-7.26,1.14-10.75,2.15
				c-0.12-0.36-0.25-0.72-0.4-1.08c-2.98-6.93-2.44-11.56-9.21-8.96c-14.77,5.67-17.13,14.03-14.15,20.97
				c0.16,0.36,0.33,0.71,0.51,1.05c-2.97,2.32-5.77,4.88-8.38,7.67c-0.28-0.25-0.56-0.5-0.87-0.72c-5.81-4.35-13.84-2.73-17.93,3.6
				c-4.1,6.34-2.71,15,3.09,19.35c0.3,0.22,0.6,0.42,0.91,0.61c-1.51,3.57-2.76,7.29-3.76,11.13c-0.36-0.06-0.71-0.12-1.08-0.15
				c-7.08-0.6-13.34,5.13-13.98,12.8c-0.65,7.66,4.57,14.36,11.65,14.95c0.37,0.03,0.73,0.03,1.09,0.03
				c0.34,3.96,0.95,7.83,1.84,11.6c-0.34,0.14-0.67,0.28-1,0.45c-6.45,3.32-9.27,11.62-6.29,18.56c2.98,6.93,10.63,9.87,17.08,6.55
				c0.34-0.17,0.66-0.37,0.98-0.57c2.11,3.18,4.44,6.18,6.98,8.96c-0.23,0.31-0.47,0.62-0.68,0.95c-4.1,6.34-2.71,15,3.09,19.35
				c5.81,4.35,18.38,2.36,22.47-3.98c0.21-0.33-4.14-0.28-3.96-0.62c3.28,1.58,6.7,2.89,10.24,3.92c-0.06,0.39-0.12,0.77-0.15,1.17
				c-0.65,7.66,4.57,14.36,11.65,14.95c7.08,0.6,13.34-5.13,13.98-12.8c0.03-0.4,0.04-0.79,0.04-1.18
				c3.66-0.42,7.26-1.14,10.75-2.15c0.12,0.36,0.25,0.72,0.4,1.08c2.98,6.93,10.63,9.87,17.08,6.55c6.45-3.32,9.27-11.62,6.29-18.56
				c-0.16-0.36-0.33-0.71-0.51-1.05c2.97-2.32,5.77-4.88,8.38-7.67c0.28,0.25,0.56,0.5,0.87,0.72c5.81,4.35,13.84,2.73,17.93-3.6
				c4.1-6.34,2.71-15-3.09-19.35c-0.3-0.22-0.6-0.42-0.91-0.61c1.51-3.57,2.76-7.29,3.76-11.13
				C745.04,114.48,745.39,114.54,745.76,114.57z M672.99,145.2c-25.7-2.16-44.63-26.47-42.28-54.3
				c2.34-27.82,25.07-48.62,50.77-46.46c25.7,2.16,44.63,26.47,42.28,54.3C721.42,126.57,698.69,147.37,672.99,145.2z"/>
			<path class="st1" d="M746.17,74.73c6.45-3.32,9.27-11.62,6.29-18.56c-2.98-6.93-10.63-9.87-17.08-6.55
				c-0.34,0.17-0.66,0.37-0.98,0.57c-2.11-3.18-4.44-6.18-6.98-8.96c0.23-0.31,0.47-0.62,0.68-0.95c4.1-6.34,7.25-18.91,1.02-22.64
				c-11.81-7.08-17.95,0.56-22.05,6.9c-0.21,0.32-0.4,0.66-0.58,1c-3.28-1.58-6.7-2.89-10.24-3.92c0.06-0.39,0.12-0.77,0.15-1.17
				c0.35-4.17-1.04-8.05-3.52-10.82c-1.58,11.98-3.06,23.98-4.43,35.98c22.05,5.55,37.43,27.9,35.31,53.13
				c-1.8,21.39-15.65,38.61-33.63,44.46c0.04,2.34,0.1,4.68,0.08,7.02c-0.06,6.35-0.47,12.72-0.89,19.08
				c1.74-0.35,3.47-0.77,5.17-1.27c0.12,0.36,0.25,0.72,0.4,1.08c2.98,6.93,9.64,11.15,21.51,5.58c6.57-3.08,4.84-10.65,1.86-17.59
				c-0.16-0.36-0.33-0.71-0.51-1.05c2.97-2.32,5.77-4.88,8.38-7.67c0.28,0.25,0.56,0.5,0.87,0.72c5.81,4.35,18.83,1.91,22.93-4.43
				c4.1-6.34-2.28-14.17-8.09-18.52c-0.3-0.22-0.6-0.42-0.91-0.61c1.51-3.57,2.76-7.29,3.76-11.13c0.36,0.06,0.71,0.12,1.08,0.15
				c7.08,0.6,13.34-5.13,13.98-12.8c0.65-7.66-4.57-14.36-11.65-14.95c-0.37-0.03-0.73-0.03-1.09-0.03
				c-0.34-3.96-0.95-7.83-1.84-11.6C745.5,75.04,745.83,74.9,746.17,74.73z"/>
			<path class="st2" d="M752.36,112.72c7.08,0.6,13.34-5.13,13.98-12.8c0.65-7.66-4.57-14.36-11.65-14.95
				c-0.37-0.03-0.73-0.03-1.09-0.03c-0.34-3.96-0.95-7.84-1.84-11.6c0.34-0.14,0.67-0.28,1-0.45c6.45-3.32,9.27-11.62,6.29-18.56
				c-2.98-6.93-10.63-9.87-17.08-6.55c-0.34,0.17-0.66,0.37-0.98,0.57c-2.11-3.18-4.44-6.18-6.98-8.96
				c0.23-0.31,0.47-0.62,0.68-0.95c4.1-6.34,2.71-15-3.09-19.35c-5.81-4.35-13.84-2.73-17.93,3.6c-0.21,0.32-0.4,0.66-0.58,1
				c-3.28-1.58-6.7-2.89-10.24-3.92c0.06-0.39,0.12-0.77,0.15-1.17c0.65-7.66-4.57-14.36-11.65-14.95
				c-7.08-0.6-13.34,5.13-13.98,12.8c-0.03,0.4-0.04,0.79-0.04,1.18c-3.66,0.42-7.26,1.14-10.75,2.15c-0.12-0.36-0.25-0.72-0.4-1.08
				c-2.98-6.93-10.63-9.87-17.08-6.55c-6.45,3.32-9.27,11.62-6.29,18.56c0.16,0.36,0.33,0.71,0.51,1.05
				c-2.97,2.32-5.77,4.88-8.38,7.67c-0.28-0.25-0.56-0.5-0.87-0.72c-5.81-4.35-13.83-2.73-17.93,3.6c-4.1,6.34-2.71,15,3.09,19.35
				c0.3,0.22,0.6,0.42,0.91,0.61c-1.51,3.57-2.76,7.29-3.76,11.13c-0.36-0.06-0.71-0.12-1.08-0.15c-7.08-0.6-13.34,5.13-13.98,12.8
				c-0.65,7.66,4.57,14.36,11.65,14.95c0.37,0.03,0.73,0.03,1.09,0.03c0.34,3.96,0.95,7.83,1.84,11.6c-0.34,0.14-0.67,0.28-1,0.45
				c-6.45,3.32-9.27,11.62-6.29,18.56c2.98,6.93,10.63,9.87,17.08,6.55c0.34-0.17,0.66-0.37,0.98-0.57
				c2.11,3.18,4.44,6.18,6.98,8.96c-0.23,0.31-0.47,0.62-0.68,0.95c-4.1,6.34-2.71,15,3.09,19.35c5.81,4.35,13.84,2.73,17.93-3.6
				c0.21-0.33,0.4-0.66,0.58-1c3.28,1.58,6.7,2.89,10.24,3.92c-0.06,0.39-0.12,0.77-0.15,1.17c-0.65,7.66,4.57,14.36,11.65,14.95
				c7.08,0.6,13.34-5.13,13.98-12.8c0.03-0.4,0.04-0.79,0.04-1.18c3.66-0.42,7.26-1.14,10.75-2.15c0.12,0.36,0.25,0.72,0.4,1.08
				c2.98,6.93,10.63,9.87,17.08,6.55c6.45-3.32,9.27-11.62,6.29-18.56c-0.16-0.36-0.33-0.71-0.51-1.05
				c2.97-2.32,5.77-4.88,8.38-7.67c0.28,0.25,0.56,0.5,0.87,0.72c5.81,4.35,13.84,2.73,17.93-3.6c4.1-6.34,2.71-15-3.09-19.35
				c-0.3-0.22-0.6-0.42-0.91-0.61c1.51-3.57,2.76-7.29,3.76-11.13C751.64,112.64,752,112.69,752.36,112.72z M679.6,143.36
				c-25.7-2.16-44.63-26.47-42.28-54.3c2.34-27.82,25.07-48.62,50.77-46.46c25.7,2.16,44.63,26.47,42.28,54.3
				C728.02,124.72,705.29,145.52,679.6,143.36z"/>
		</g>
		<g>
			<path class="st1" d="M875.56,125.25c4.2,0.35,7.92-3.05,8.3-7.6c0.38-4.55-2.71-8.53-6.92-8.88c-0.22-0.02-0.43-0.02-0.65-0.02
				c-0.2-2.35-0.57-4.65-1.09-6.89c0.2-0.08,0.4-0.17,0.59-0.27c3.83-1.97,5.5-6.9,3.73-11.02c-1.77-4.12-6.31-5.86-10.14-3.89
				c-0.2,0.1-0.39,0.22-0.58,0.34c-1.25-1.89-2.64-3.67-4.14-5.32c0.14-0.18,0.28-0.37,0.4-0.56c2.43-3.76,1.61-8.91-1.84-11.49
				c-3.45-2.58-8.22-1.62-10.65,2.14c-0.12,0.19-0.24,0.39-0.34,0.59c-1.95-0.94-3.98-1.72-6.08-2.33c0.04-0.23,0.07-0.46,0.09-0.7
				c0.38-4.55,1.21-9.69-3-9.98c-9.74-0.67-11.84,4.14-12.23,8.7c-0.02,0.24-0.02,0.47-0.03,0.7c-2.18,0.25-4.31,0.68-6.39,1.28
				c-0.07-0.21-0.15-0.43-0.24-0.64c-1.77-4.12-1.45-6.87-5.47-5.32c-8.77,3.37-10.17,8.33-8.4,12.45c0.09,0.22,0.2,0.42,0.3,0.62
				c-1.76,1.38-3.43,2.9-4.98,4.55c-0.17-0.15-0.33-0.29-0.51-0.43c-3.45-2.58-8.22-1.62-10.65,2.14
				c-2.43,3.76-1.61,8.91,1.84,11.49c0.18,0.13,0.36,0.25,0.54,0.36c-0.89,2.12-1.64,4.33-2.23,6.61c-0.21-0.04-0.42-0.07-0.64-0.09
				c-4.2-0.35-7.92,3.05-8.3,7.6c-0.38,4.55,2.71,8.53,6.92,8.88c0.22,0.02,0.43,0.02,0.65,0.02c0.2,2.35,0.57,4.65,1.09,6.89
				c-0.2,0.08-0.4,0.17-0.59,0.27c-3.83,1.97-5.5,6.9-3.73,11.02c1.77,4.12,6.31,5.86,10.14,3.89c0.2-0.1,0.39-0.22,0.58-0.34
				c1.25,1.89,2.64,3.67,4.14,5.32c-0.14,0.18-0.28,0.37-0.4,0.56c-2.43,3.76-1.61,8.91,1.84,11.49c3.45,2.58,10.91,1.4,13.35-2.36
				c0.12-0.19-2.46-0.17-2.35-0.37c1.95,0.94,3.98,1.72,6.08,2.33c-0.04,0.23-0.07,0.46-0.09,0.7c-0.38,4.55,2.71,8.53,6.92,8.88
				c4.2,0.35,7.92-3.05,8.3-7.6c0.02-0.24,0.02-0.47,0.03-0.7c2.18-0.25,4.31-0.68,6.39-1.28c0.07,0.21,0.15,0.43,0.24,0.64
				c1.77,4.12,6.31,5.86,10.14,3.89c3.83-1.97,5.5-6.9,3.73-11.02c-0.09-0.22-0.2-0.42-0.3-0.62c1.76-1.38,3.43-2.9,4.98-4.55
				c0.17,0.15,0.33,0.29,0.51,0.43c3.45,2.58,8.22,1.62,10.65-2.14c2.43-3.76,1.61-8.91-1.84-11.49c-0.18-0.13-0.36-0.25-0.54-0.36
				c0.89-2.12,1.64-4.33,2.23-6.61C875.13,125.19,875.35,125.23,875.56,125.25z M832.35,143.44c-15.26-1.29-26.5-15.72-25.11-32.25
				c1.39-16.53,14.89-28.88,30.15-27.59c15.26,1.29,26.51,15.72,25.11,32.25C861.11,132.37,847.61,144.72,832.35,143.44z"/>
			<path class="st1" d="M875.8,101.59c3.83-1.97,5.5-6.9,3.73-11.02c-1.77-4.12-6.31-5.86-10.14-3.89c-0.2,0.1-0.39,0.22-0.58,0.34
				c-1.25-1.89-2.64-3.67-4.14-5.32c0.14-0.18,0.28-0.37,0.4-0.56c2.43-3.76,4.3-11.23,0.61-13.45c-7.01-4.2-10.66,0.33-13.1,4.1
				c-0.12,0.19-0.24,0.39-0.34,0.59c-1.95-0.94-3.98-1.72-6.08-2.33c0.04-0.23,0.07-0.46,0.09-0.7c0.21-2.48-0.62-4.78-2.09-6.42
				c-0.94,7.12-1.82,14.24-2.63,21.37c13.1,3.3,22.23,16.57,20.97,31.56c-1.07,12.7-9.3,22.93-19.97,26.4
				c0.02,1.39,0.06,2.78,0.05,4.17c-0.03,3.77-0.28,7.55-0.53,11.33c1.04-0.21,2.06-0.46,3.07-0.75c0.07,0.22,0.15,0.43,0.24,0.64
				c1.77,4.12,5.72,6.62,12.77,3.31c3.9-1.83,2.87-6.33,1.1-10.44c-0.09-0.22-0.2-0.42-0.3-0.62c1.76-1.38,3.43-2.9,4.98-4.55
				c0.17,0.15,0.33,0.29,0.51,0.43c3.45,2.58,11.18,1.13,13.62-2.63c2.43-3.76-1.36-8.42-4.81-11c-0.18-0.13-0.36-0.25-0.54-0.36
				c0.89-2.12,1.64-4.33,2.23-6.61c0.21,0.04,0.42,0.07,0.64,0.09c4.2,0.35,7.92-3.05,8.3-7.6c0.38-4.55-2.71-8.53-6.92-8.88
				c-0.22-0.02-0.43-0.02-0.65-0.02c-0.2-2.35-0.57-4.65-1.09-6.89C875.41,101.77,875.61,101.69,875.8,101.59z"/>
			<path class="st2" d="M879.48,124.15c4.2,0.35,7.92-3.05,8.3-7.6c0.38-4.55-2.71-8.53-6.92-8.88c-0.22-0.02-0.43-0.02-0.65-0.02
				c-0.2-2.35-0.57-4.65-1.09-6.89c0.2-0.08,0.4-0.17,0.59-0.27c3.83-1.97,5.5-6.9,3.73-11.02c-1.77-4.12-6.31-5.86-10.14-3.89
				c-0.2,0.1-0.39,0.22-0.58,0.34c-1.25-1.89-2.64-3.67-4.14-5.32c0.14-0.18,0.28-0.37,0.4-0.56c2.43-3.76,1.61-8.91-1.84-11.49
				c-3.45-2.58-8.22-1.62-10.65,2.14c-0.12,0.19-0.24,0.39-0.34,0.59c-1.95-0.94-3.98-1.72-6.08-2.33c0.04-0.23,0.07-0.46,0.09-0.7
				c0.38-4.55-2.71-8.53-6.92-8.88c-4.2-0.35-7.92,3.05-8.3,7.6c-0.02,0.24-0.02,0.47-0.03,0.7c-2.18,0.25-4.31,0.68-6.39,1.28
				c-0.07-0.21-0.15-0.43-0.24-0.64c-1.77-4.12-6.31-5.86-10.14-3.89c-3.83,1.97-5.5,6.9-3.73,11.02c0.09,0.22,0.2,0.42,0.3,0.62
				c-1.76,1.38-3.43,2.9-4.98,4.55c-0.17-0.15-0.33-0.29-0.51-0.43c-3.45-2.58-8.22-1.62-10.65,2.14
				c-2.43,3.76-1.61,8.91,1.84,11.49c0.18,0.13,0.36,0.25,0.54,0.36c-0.89,2.12-1.64,4.33-2.23,6.61c-0.21-0.04-0.42-0.07-0.64-0.09
				c-4.2-0.35-7.92,3.05-8.3,7.6c-0.38,4.55,2.71,8.53,6.92,8.88c0.22,0.02,0.43,0.02,0.65,0.02c0.2,2.35,0.57,4.65,1.09,6.89
				c-0.2,0.08-0.4,0.17-0.59,0.27c-3.83,1.97-5.5,6.9-3.73,11.02c1.77,4.12,6.31,5.86,10.14,3.89c0.2-0.1,0.39-0.22,0.58-0.34
				c1.25,1.89,2.64,3.67,4.14,5.32c-0.14,0.18-0.28,0.37-0.4,0.56c-2.43,3.76-1.61,8.91,1.84,11.49c3.45,2.58,8.22,1.62,10.65-2.14
				c0.12-0.19,0.24-0.39,0.34-0.59c1.95,0.94,3.98,1.72,6.08,2.33c-0.04,0.23-0.07,0.46-0.09,0.7c-0.38,4.55,2.71,8.53,6.92,8.88
				c4.2,0.35,7.92-3.05,8.3-7.6c0.02-0.24,0.02-0.47,0.03-0.7c2.18-0.25,4.31-0.68,6.39-1.28c0.07,0.21,0.15,0.43,0.24,0.64
				c1.77,4.12,6.31,5.86,10.14,3.89c3.83-1.97,5.5-6.9,3.73-11.02c-0.09-0.22-0.2-0.42-0.3-0.62c1.76-1.38,3.43-2.9,4.98-4.55
				c0.17,0.15,0.33,0.29,0.51,0.43c3.45,2.58,8.22,1.62,10.65-2.14c2.43-3.76,1.61-8.91-1.84-11.49c-0.18-0.13-0.36-0.25-0.54-0.36
				c0.89-2.12,1.64-4.33,2.23-6.61C879.05,124.1,879.27,124.13,879.48,124.15z M836.27,142.34c-15.26-1.29-26.5-15.72-25.11-32.25
				c1.39-16.52,14.89-28.88,30.15-27.59c15.26,1.29,26.5,15.72,25.11,32.25C865.03,131.27,851.53,143.63,836.27,142.34z"/>
		</g>
		<g>
			<g>
				<path class="st3" d="M617.57,597.77c-8.77-2.91-15.33-10.35-17.17-19.5l-12.77-63.18l-109.2,3.88l-13.44,65.82
					c-1.88,9.22,5.65,18.47,14.33,21.86L525,624.53c8.5,3.32,17.63,4.65,26.71,3.87l96.55-8.26c2.82-0.24,5.09-2.46,5.42-5.31
					c0.33-2.85,2.31-6.04-0.39-6.94L617.57,597.77z"/>
				<path class="st4" d="M618.65,593.93c-8.76-2.87-15.31-10.22-17.16-19.26l-12.75-62.39l-106.54,3.83l-13.43,64.99
					c-1.88,9.1,3.09,18.23,11.76,21.58l45.64,17.65c8.49,3.28,17.61,4.59,26.68,3.82l96.46-8.16c2.82-0.24,5.08-2.43,5.41-5.24
					c0.33-2.81-1.37-5.46-4.06-6.35L618.65,593.93z"/>
			</g>
			<g>
				<g>
					<path class="st4" d="M255.29,557.08c-11.84,0.71-21.53-6.98-21.53-17.13V174.03c0-10.15,9.69-17.99,21.53-17.48l547.65,23.73
						c8.69,0.38,15.73,7.71,15.73,16.34v311.22c0,8.63-7.04,16.08-15.73,16.6L255.29,557.08z"/>
					<linearGradient id="SVGID_1_" gradientUnits="userSpaceOnUse" x1="238.6776" y1="356.8278" x2="823.5955" y2="356.8278">
						<stop  offset="0" style="stop-color:#A2D9E9"/>
						<stop  offset="0.4973" style="stop-color:#65C6EC"/>
						<stop  offset="1" style="stop-color:#2E589E"/>
					</linearGradient>
					<path class="st5" d="M260.21,557.08c-11.84,0.71-21.53-6.98-21.53-17.13V174.03c0-10.15,9.69-17.99,21.53-17.48l547.65,23.73
						c8.69,0.38,15.73,7.71,15.73,16.34v311.22c0,8.63-7.04,16.08-15.73,16.6L260.21,557.08z"/>
					<path class="st6" d="M807.86,187.6l-547.65-22.53c-6.33-0.26-11.48,3.92-11.48,9.34v284.59v80.39c0,5.42,5.15,9.52,11.48,9.16
						l547.65-31.45c4.66-0.27,8.43-4.24,8.43-8.87V437.1V196.34C816.29,191.71,812.52,187.8,807.86,187.6z"/>
					<path class="st0" d="M260.21,517.47c-2.46,0.12-4.47-1.49-4.47-3.6V174.69c0-2.11,2.01-3.74,4.47-3.65l547.65,21.69
						c1.82,0.07,3.3,1.6,3.3,3.41v290.82c0,1.81-1.48,3.35-3.3,3.44L260.21,517.47z"/>
				</g>
			</g>
			<g>
				<g>
					<path class="st7" d="M722.36,476.11V101.41L385.5,84.57v410.38c0,8.61-6.24,15.95-14.74,17.34h0l333.49-16.85
						C714.44,494.77,722.36,486.31,722.36,476.11z"/>
				</g>
				<g>
					<path class="st2" d="M722.36,177.17c-0.42,0-0.76-0.34-0.76-0.76v-74.28L386.26,85.36v76.45c0,0.42-0.34,0.76-0.76,0.76
						c-0.42,0-0.76-0.34-0.76-0.76V83.77l0.79,0.04l337.58,16.88v75.72C723.11,176.83,722.77,177.17,722.36,177.17z"/>
				</g>
			</g>
			<g>
				<polygon class="st2" points="689.11,334.66 426.26,335.53 426.26,237.64 689.11,242.3 				"/>
				<polygon class="st2" points="689.11,232.54 426.26,226.6 426.26,124.18 689.11,136.58 				"/>
				<polygon class="st2" points="689.11,437.09 426.26,444.09 426.26,346.19 689.11,344.72 				"/>
			</g>
		</g>
		<g>
			<g>
				
					<linearGradient id="SVGID_00000120535855993776830220000010045740633589625241_" gradientUnits="userSpaceOnUse" x1="625.3431" y1="383.7007" x2="623.7097" y2="300.9419">
					<stop  offset="0" style="stop-color:#FF9085"/>
					<stop  offset="1" style="stop-color:#FB6FBB"/>
				</linearGradient>
				<path style="fill:url(#SVGID_00000120535855993776830220000010045740633589625241_);" d="M664.57,267.08v71.29
					c0,5.46-4.43,9.89-9.89,9.89h-61.86c-5.46,0-9.9-4.43-9.9-9.89v-90.91c0-5.46,4.43-9.9,9.9-9.9h42.86l0.6,0.62l27.86,28.45
					L664.57,267.08z"/>
				
					<linearGradient id="SVGID_00000128473118636569640970000000281005693196343477_" gradientUnits="userSpaceOnUse" x1="586.7943" y1="313.6014" x2="920.8242" y2="115.1436">
					<stop  offset="0" style="stop-color:#FF9085"/>
					<stop  offset="1" style="stop-color:#FB6FBB"/>
				</linearGradient>
				<path style="fill:url(#SVGID_00000128473118636569640970000000281005693196343477_);" d="M667.02,264.35v71.29
					c0,5.46-4.43,9.89-9.9,9.89h-61.86c-5.46,0-9.89-4.43-9.89-9.89v-90.91c0-5.46,4.43-9.89,9.89-9.89h42.86l0.6,0.62l27.86,28.45
					L667.02,264.35z"/>
				<path class="st7" d="M636.99,237.54l27.33,27.91v70.2c0,3.97-3.23,7.2-7.2,7.2h-61.86c-3.97,0-7.2-3.23-7.2-7.2v-90.91
					c0-3.97,3.23-7.2,7.2-7.2H636.99L636.99,237.54z M638.12,234.84h-42.86c-5.46,0-9.89,4.43-9.89,9.9v90.91
					c0,5.46,4.43,9.89,9.89,9.89h61.86c5.47,0,9.9-4.43,9.9-9.89v-71.29l-0.43-0.45l-27.86-28.45L638.12,234.84L638.12,234.84z"/>
				
					<linearGradient id="SVGID_00000124120939650282810160000014793854772700624809_" gradientUnits="userSpaceOnUse" x1="638.7272" y1="249.6838" x2="666.5892" y2="249.6838">
					<stop  offset="0" style="stop-color:#FF9085"/>
					<stop  offset="1" style="stop-color:#FB6FBB"/>
				</linearGradient>
				<path style="fill:url(#SVGID_00000124120939650282810160000014793854772700624809_);" d="M666.59,263.91h-21.13
					c-3.72,0-6.73-3.01-6.73-6.73v-21.72L666.59,263.91z"/>
				<path class="st7" d="M641.43,242.07l18.74,19.14h-14.72c-2.22,0-4.03-1.81-4.03-4.03V242.07L641.43,242.07z M638.73,235.46
					v21.72c0,3.72,3.01,6.73,6.73,6.73h21.13L638.73,235.46L638.73,235.46z"/>
				<g>
					<path class="st7" d="M645.44,328.85h-41.89c-0.74,0-1.35-0.6-1.35-1.35v-44.94c0-0.75,0.6-1.35,1.35-1.35h41.89
						c0.74,0,1.35,0.6,1.35,1.35v44.94C646.78,328.24,646.18,328.85,645.44,328.85z M604.9,326.15h39.19v-42.24H604.9V326.15z"/>
					<path class="st7" d="M614.2,328.84c-0.74,0-1.35-0.6-1.35-1.35v-44.94c0-0.75,0.6-1.35,1.35-1.35c0.74,0,1.35,0.6,1.35,1.35
						v44.94C615.55,328.24,614.94,328.84,614.2,328.84z"/>
					<path class="st7" d="M645.44,294.82h-41.89c-0.74,0-1.35-0.6-1.35-1.35s0.6-1.35,1.35-1.35h41.89c0.74,0,1.35,0.6,1.35,1.35
						S646.19,294.82,645.44,294.82z"/>
					<path class="st7" d="M645.44,306.33h-41.89c-0.74,0-1.35-0.6-1.35-1.35s0.6-1.35,1.35-1.35h41.89c0.74,0,1.35,0.6,1.35,1.35
						S646.19,306.33,645.44,306.33z"/>
					<path class="st7" d="M645.44,317.55h-41.89c-0.74,0-1.35-0.6-1.35-1.35c0-0.75,0.6-1.35,1.35-1.35h41.89
						c0.74,0,1.35,0.6,1.35,1.35C646.79,316.94,646.19,317.55,645.44,317.55z"/>
					<path class="st7" d="M633.46,328.84c-0.74,0-1.35-0.6-1.35-1.35v-44.94c0-0.75,0.6-1.35,1.35-1.35c0.74,0,1.35,0.6,1.35,1.35
						v44.94C634.81,328.24,634.2,328.84,633.46,328.84z"/>
				</g>
			</g>
			<g>
				<path class="st4" d="M484.41,161.71v116.8c0,8.95-7.26,16.21-16.21,16.21H366.86c-8.95,0-16.21-7.26-16.21-16.21V129.57
					c0-8.95,7.26-16.21,16.21-16.21h70.21l0.99,1.01l45.64,46.61L484.41,161.71z"/>
				
					<linearGradient id="SVGID_00000067926079581472369200000010960438272694045098_" gradientUnits="userSpaceOnUse" x1="264.0035" y1="444.3711" x2="524.9045" y2="38.9713">
					<stop  offset="0" style="stop-color:#A2D9E9"/>
					<stop  offset="0.4973" style="stop-color:#65C6EC"/>
					<stop  offset="1" style="stop-color:#2E589E"/>
				</linearGradient>
				<path style="fill:url(#SVGID_00000067926079581472369200000010960438272694045098_);" d="M488.43,157.25v116.8
					c0,8.95-7.26,16.21-16.21,16.21H370.88c-8.95,0-16.21-7.26-16.21-16.21V125.11c0-8.95,7.26-16.21,16.21-16.21h70.21l0.99,1.01
					l45.64,46.61L488.43,157.25z"/>
				<path class="st7" d="M439.23,113.31l44.78,45.73v115.01c0,6.51-5.29,11.8-11.8,11.8H370.88c-6.51,0-11.8-5.29-11.8-11.8V125.11
					c0-6.51,5.29-11.8,11.8-11.8H439.23L439.23,113.31z M441.09,108.9h-70.21c-8.95,0-16.21,7.26-16.21,16.21v148.93
					c0,8.95,7.26,16.21,16.21,16.21h101.34c8.95,0,16.21-7.26,16.21-16.21v-116.8l-0.7-0.73l-45.64-46.61L441.09,108.9L441.09,108.9
					z"/>
				<path class="st4" d="M487.72,156.52H453.1c-6.09,0-11.02-4.93-11.02-11.02v-35.59L487.72,156.52z"/>
				<path class="st7" d="M446.48,120.71l30.75,31.4H453.1c-3.65,0-6.61-2.97-6.61-6.61V120.71L446.48,120.71z M442.08,109.91v35.59
					c0,6.09,4.93,11.02,11.02,11.02h34.62L442.08,109.91L442.08,109.91z"/>
				<g>
					<path class="st7" d="M417.81,262.74c-21.12,0-38.31-17.19-38.31-38.31c0-20.84,16.94-38.02,37.77-38.31
						c0.63-0.01,1.18,0.22,1.61,0.65c0.43,0.42,0.67,1,0.67,1.6v34.33h34.33c0.6,0,1.17,0.24,1.59,0.66c0.88,0.88,0.88,2.32,0,3.2
						c-0.42,0.42-0.99,0.66-1.59,0.66h0l-31.84-0.01l19.82,24.14c0.38,0.47,0.56,1.07,0.5,1.67c-0.07,0.6-0.37,1.15-0.84,1.52
						C434.71,259.9,426.51,262.74,417.81,262.74z M415.05,190.73c-17.32,1.41-31.06,16.08-31.06,33.71
						c0,18.65,15.17,33.82,33.82,33.82c6.91,0,13.46-2.03,19.08-5.89l-21.34-25.99c-0.39-0.48-0.56-1.09-0.5-1.69V190.73z"/>
					<path class="st7" d="M467.53,214.57h-36.57c-1.24,0-2.25-1.01-2.25-2.25v-36.57c0-1.2,0.95-2.19,2.15-2.24
						c0.2-0.01,0.41-0.01,0.61-0.01c21.13,0,38.32,17.19,38.32,38.32c0,0.2,0,0.41-0.01,0.61
						C469.72,213.62,468.73,214.57,467.53,214.57z M433.2,210.07h32.05c-0.88-17.27-14.77-31.17-32.05-32.05V210.07z"/>
					<path class="st7" d="M440.12,255.47c-0.78,0-1.56-0.34-2.09-0.99l-22.84-27.82c-0.66-0.81-0.8-1.93-0.36-2.87
						c0.45-0.94,1.4-1.55,2.45-1.55h0l36.59,0.02c0.72,0,1.42,0.29,1.93,0.81c0.51,0.52,0.79,1.21,0.78,1.94
						c-0.17,11.72-5.56,22.62-14.78,29.89C441.3,255.28,440.71,255.47,440.12,255.47z M423.01,227.66l17.46,21.26
						c6.03-5.57,9.77-13.1,10.55-21.25L423.01,227.66z"/>
				</g>
			</g>
			<g>
				
					<linearGradient id="SVGID_00000127729678038851364980000002984238911596638649_" gradientUnits="userSpaceOnUse" x1="730.3929" y1="329.4474" x2="729.2779" y2="272.9525">
					<stop  offset="0" style="stop-color:#FFC444"/>
					<stop  offset="0.9964" style="stop-color:#F36F56"/>
				</linearGradient>
				<path style="fill:url(#SVGID_00000127729678038851364980000002984238911596638649_);" d="M757.17,249.83v48.67
					c0,3.73-3.02,6.75-6.75,6.75h-42.23c-3.73,0-6.75-3.02-6.75-6.75v-62.06c0-3.73,3.02-6.75,6.75-6.75h29.26l0.41,0.42
					l19.02,19.42L757.17,249.83z"/>
				
					<linearGradient id="SVGID_00000119798122196918776460000000353037976857417863_" gradientUnits="userSpaceOnUse" x1="708.5847" y1="278.9168" x2="936.6086" y2="143.4405">
					<stop  offset="0" style="stop-color:#FFC444"/>
					<stop  offset="0.9964" style="stop-color:#F36F56"/>
				</linearGradient>
				<path style="fill:url(#SVGID_00000119798122196918776460000000353037976857417863_);" d="M758.84,247.98v48.67
					c0,3.73-3.02,6.75-6.75,6.75h-42.23c-3.73,0-6.75-3.02-6.75-6.75v-62.06c0-3.73,3.02-6.75,6.75-6.75h29.26l0.41,0.42
					l19.02,19.42L758.84,247.98z"/>
				<path class="st7" d="M738.17,230.08l18.42,18.81v47.75c0,2.48-2.02,4.51-4.51,4.51h-42.23c-2.48,0-4.51-2.02-4.51-4.51v-62.06
					c0-2.48,2.02-4.51,4.51-4.51H738.17L738.17,230.08z M739.12,227.83h-29.26c-3.73,0-6.75,3.02-6.75,6.75v62.06
					c0,3.73,3.02,6.75,6.75,6.75h42.23c3.73,0,6.75-3.02,6.75-6.75v-48.67l-0.29-0.3l-19.02-19.42L739.12,227.83L739.12,227.83z"/>
				
					<linearGradient id="SVGID_00000137855157135011845510000012711196287413352622_" gradientUnits="userSpaceOnUse" x1="711.1202" y1="275.8807" x2="801.1154" y2="185.8855">
					<stop  offset="0" style="stop-color:#FFC444"/>
					<stop  offset="0.9964" style="stop-color:#F36F56"/>
				</linearGradient>
				<path style="fill:url(#SVGID_00000137855157135011845510000012711196287413352622_);" d="M758.55,247.67h-14.43
					c-2.54,0-4.59-2.06-4.59-4.59v-14.83L758.55,247.67z"/>
				<path class="st7" d="M741.76,233.72l11.48,11.73h-9.12c-1.3,0-2.36-1.06-2.36-2.36V233.72L741.76,233.72z M739.53,228.25v14.83
					c0,2.54,2.06,4.59,4.59,4.59h14.43L739.53,228.25L739.53,228.25z"/>
				<g>
					<path class="st7" d="M746.99,289.44h-31.22c-0.65,0-1.17-0.52-1.17-1.17v-26.02c0-0.65,0.52-1.17,1.17-1.17h31.22
						c0.65,0,1.17,0.52,1.17,1.17v26.02C748.16,288.92,747.64,289.44,746.99,289.44z M716.94,287.1h28.89v-23.68h-28.89V287.1z"/>
					<path class="st7" d="M715.77,284.52c-0.29,0-0.58-0.11-0.81-0.32c-0.47-0.44-0.48-1.18-0.04-1.65l8.55-8.97
						c0.22-0.23,0.51-0.36,0.82-0.36c0.32,0,0.61,0.11,0.84,0.33l4.48,4.37l7.41-7.16c0.46-0.45,1.2-0.44,1.65,0.02l9.15,9.36
						c0.45,0.46,0.44,1.2-0.02,1.65c-0.46,0.45-1.2,0.44-1.65-0.02l-8.34-8.53l-7.39,7.14c-0.45,0.44-1.18,0.44-1.63,0l-4.45-4.33
						l-7.73,8.12C716.39,284.4,716.08,284.52,715.77,284.52z"/>
				</g>
			</g>
			<g>
				
					<linearGradient id="SVGID_00000165232251300232066020000009346168053572466338_" gradientUnits="userSpaceOnUse" x1="695.6618" y1="520.0093" x2="693.9128" y2="431.3946">
					<stop  offset="0" style="stop-color:#AA80F9"/>
					<stop  offset="0.9964" style="stop-color:#6165D7"/>
				</linearGradient>
				<path style="fill:url(#SVGID_00000165232251300232066020000009346168053572466338_);" d="M737.66,395.13v76.34
					c0,5.85-4.74,10.6-10.6,10.6h-66.23c-5.85,0-10.6-4.74-10.6-10.6v-97.34c0-5.85,4.74-10.6,10.6-10.6h45.89l0.65,0.66
					l29.83,30.46L737.66,395.13z"/>
				
					<linearGradient id="SVGID_00000119813852163944293740000002677096799370914189_" gradientUnits="userSpaceOnUse" x1="654.3854" y1="444.95" x2="1012.0502" y2="232.4499">
					<stop  offset="0" style="stop-color:#AA80F9"/>
					<stop  offset="0.9964" style="stop-color:#6165D7"/>
				</linearGradient>
				<path style="fill:url(#SVGID_00000119813852163944293740000002677096799370914189_);" d="M740.29,392.22v76.34
					c0,5.85-4.74,10.6-10.6,10.6h-66.23c-5.85,0-10.6-4.74-10.6-10.6v-97.34c0-5.85,4.74-10.6,10.6-10.6h45.89l0.65,0.66
					l29.83,30.46L740.29,392.22z"/>
				<path class="st7" d="M708.06,363.67l29.17,29.78v75.1c0,4.16-3.38,7.54-7.54,7.54h-66.23c-4.16,0-7.54-3.38-7.54-7.54v-97.34
					c0-4.16,3.38-7.54,7.54-7.54H708.06L708.06,363.67z M709.35,360.62h-45.89c-5.85,0-10.6,4.74-10.6,10.6v97.34
					c0,5.85,4.74,10.6,10.6,10.6h66.23c5.85,0,10.59-4.74,10.59-10.6v-76.34l-0.46-0.48l-29.83-30.46L709.35,360.62L709.35,360.62z"
					/>
				
					<linearGradient id="SVGID_00000112609968755938024890000002545117354369129125_" gradientUnits="userSpaceOnUse" x1="709.9929" y1="376.5097" x2="739.8263" y2="376.5097">
					<stop  offset="0" style="stop-color:#AA80F9"/>
					<stop  offset="0.9964" style="stop-color:#6165D7"/>
				</linearGradient>
				<path style="fill:url(#SVGID_00000112609968755938024890000002545117354369129125_);" d="M739.83,391.74H717.2
					c-3.98,0-7.2-3.23-7.2-7.2v-23.26L739.83,391.74z"/>
				<path class="st7" d="M713.05,368.77l19.5,19.91H717.2c-2.29,0-4.15-1.86-4.15-4.15V368.77L713.05,368.77z M709.99,361.28v23.26
					c0,3.98,3.22,7.2,7.2,7.2h22.63L709.99,361.28L709.99,361.28z"/>
				<g>
					<path class="st7" d="M719.49,418.2h-15.15c-0.87,0-1.57-0.7-1.57-1.57c0-0.87,0.7-1.57,1.57-1.57h15.15
						c0.87,0,1.57,0.7,1.57,1.57C721.07,417.49,720.36,418.2,719.49,418.2z"/>
					<path class="st7" d="M719.5,429.88h-15.15c-0.87,0-1.57-0.7-1.57-1.57s0.7-1.57,1.57-1.57h15.15c0.87,0,1.57,0.7,1.57,1.57
						S720.37,429.88,719.5,429.88z"/>
					<path class="st7" d="M718.42,442.21h-44.85c-0.87,0-1.57-0.7-1.57-1.57c0-0.87,0.7-1.57,1.57-1.57h44.85
						c0.87,0,1.57,0.7,1.57,1.57C719.99,441.5,719.29,442.21,718.42,442.21z"/>
					<path class="st7" d="M718.42,454.22h-44.85c-0.87,0-1.57-0.7-1.57-1.57s0.7-1.57,1.57-1.57h44.85c0.87,0,1.57,0.7,1.57,1.57
						S719.29,454.22,718.42,454.22z"/>
				</g>
				<path class="st7" d="M695.68,430.84h-22.3c-0.87,0-1.57-0.7-1.57-1.57v-12.68c0-0.87,0.7-1.57,1.57-1.57h22.3
					c0.87,0,1.57,0.7,1.57,1.57v12.68C697.25,430.13,696.55,430.84,695.68,430.84z M674.95,427.69h19.15v-9.53h-19.15V427.69z"/>
			</g>
		</g>
		<g>
			<path class="st1" d="M500.01,586.64c9.94,0.84,18.73-7.21,19.64-17.97c0.91-10.76-6.42-20.16-16.35-21
				c-0.51-0.04-1.02-0.05-1.53-0.05c-0.47-5.56-1.34-11-2.59-16.29c0.47-0.19,0.94-0.39,1.41-0.63c9.06-4.66,13.01-16.32,8.83-26.06
				c-4.18-9.74-14.92-13.86-23.98-9.2c-0.47,0.24-0.92,0.52-1.37,0.8c-2.96-4.47-6.23-8.67-9.8-12.58c0.33-0.43,0.65-0.86,0.95-1.33
				c5.75-8.9,3.81-21.07-4.34-27.17c-8.15-6.11-19.43-3.84-25.18,5.06c-0.29,0.46-0.56,0.93-0.81,1.4c-4.6-2.22-9.41-4.06-14.38-5.5
				c0.09-0.54,0.17-1.09,0.22-1.65c0.91-10.76,2.87-22.91-7.08-23.59c-23.02-1.58-28,9.8-28.91,20.56
				c-0.05,0.56-0.06,1.11-0.06,1.66c-5.15,0.59-10.19,1.6-15.1,3.02c-0.17-0.51-0.35-1.01-0.57-1.51
				c-4.18-9.74-3.43-16.23-12.94-12.59c-20.74,7.96-24.05,19.71-19.87,29.45c0.22,0.51,0.47,0.99,0.72,1.47
				c-4.17,3.26-8.1,6.86-11.77,10.77c-0.39-0.35-0.79-0.7-1.22-1.02c-8.15-6.11-19.43-3.84-25.18,5.06
				c-5.75,8.9-3.81,21.07,4.34,27.17c0.42,0.31,0.85,0.59,1.28,0.86c-2.12,5.01-3.88,10.23-5.28,15.63c-0.5-0.09-1-0.17-1.52-0.21
				c-9.94-0.84-18.73,7.21-19.64,17.97c-0.91,10.76,6.42,20.16,16.35,21c0.51,0.04,1.02,0.05,1.53,0.05
				c0.47,5.56,1.34,11,2.59,16.29c-0.47,0.19-0.94,0.39-1.41,0.63c-9.06,4.66-13.01,16.32-8.83,26.06
				c4.18,9.74,14.92,13.86,23.98,9.2c0.47-0.24,0.92-0.52,1.37-0.8c2.96,4.47,6.23,8.67,9.8,12.58c-0.33,0.43-0.65,0.86-0.95,1.33
				c-5.75,8.9-3.81,21.07,4.34,27.17c8.15,6.11,25.8,3.31,31.56-5.59c0.29-0.46-5.82-0.4-5.57-0.87c4.6,2.22,9.41,4.06,14.38,5.5
				c-0.09,0.54-0.17,1.09-0.22,1.64c-0.91,10.76,6.42,20.16,16.35,21c9.94,0.84,18.73-7.21,19.64-17.97
				c0.05-0.56,0.06-1.11,0.06-1.66c5.15-0.59,10.19-1.6,15.1-3.02c0.17,0.51,0.35,1.01,0.57,1.51c4.18,9.74,14.92,13.86,23.98,9.2
				c9.06-4.66,13.01-16.32,8.83-26.06c-0.22-0.51-0.47-0.99-0.72-1.47c4.17-3.26,8.1-6.86,11.77-10.77c0.39,0.35,0.79,0.7,1.22,1.01
				c8.15,6.11,19.43,3.84,25.18-5.06c5.75-8.9,3.81-21.07-4.34-27.17c-0.42-0.31-0.85-0.59-1.28-0.86
				c2.11-5.01,3.88-10.23,5.28-15.63C498.99,586.52,499.49,586.6,500.01,586.64z M397.82,629.66
				c-36.08-3.04-62.67-37.18-59.38-76.25c3.29-39.07,35.21-68.28,71.29-65.24c36.08,3.04,62.67,37.18,59.38,76.25
				C465.83,603.49,433.91,632.7,397.82,629.66z"/>
			<path class="st1" d="M500.57,530.7c9.06-4.66,13.01-16.32,8.83-26.06c-4.18-9.74-14.92-13.86-23.98-9.2
				c-0.47,0.24-0.92,0.52-1.37,0.8c-2.96-4.47-6.23-8.67-9.8-12.58c0.33-0.43,0.65-0.86,0.95-1.33c5.75-8.9,10.17-26.56,1.44-31.79
				c-16.58-9.94-25.21,0.78-30.97,9.68c-0.29,0.46-0.56,0.93-0.81,1.4c-4.6-2.22-9.41-4.06-14.38-5.5c0.09-0.54,0.17-1.09,0.22-1.64
				c0.49-5.86-1.46-11.3-4.94-15.19c-2.22,16.83-4.3,33.67-6.22,50.53c30.97,7.8,52.56,39.17,49.58,74.61
				c-2.53,30.03-21.98,54.22-47.23,62.43c0.06,3.28,0.14,6.57,0.11,9.86c-0.08,8.92-0.66,17.86-1.25,26.79
				c2.45-0.5,4.87-1.09,7.26-1.78c0.17,0.51,0.35,1.01,0.57,1.51c4.18,9.74,13.53,15.66,30.2,7.84c9.22-4.33,6.79-14.96,2.61-24.7
				c-0.22-0.51-0.47-0.99-0.72-1.47c4.17-3.26,8.1-6.86,11.77-10.77c0.39,0.35,0.79,0.7,1.22,1.01c8.15,6.11,26.45,2.68,32.2-6.22
				c5.75-8.9-3.21-19.9-11.36-26.01c-0.42-0.31-0.85-0.59-1.28-0.86c2.12-5.01,3.88-10.23,5.28-15.63c0.5,0.09,1,0.17,1.52,0.21
				c9.94,0.84,18.73-7.21,19.64-17.97c0.91-10.76-6.42-20.16-16.35-21c-0.52-0.04-1.02-0.05-1.53-0.05
				c-0.47-5.56-1.34-11-2.59-16.29C499.64,531.14,500.11,530.94,500.57,530.7z"/>
			<path class="st2" d="M509.28,584.05c9.94,0.84,18.73-7.21,19.64-17.97c0.91-10.76-6.42-20.16-16.35-21
				c-0.51-0.04-1.02-0.05-1.53-0.05c-0.47-5.56-1.34-11-2.59-16.29c0.47-0.19,0.94-0.39,1.41-0.63c9.06-4.66,13.01-16.32,8.83-26.06
				c-4.18-9.74-14.92-13.86-23.98-9.2c-0.47,0.24-0.92,0.52-1.37,0.8c-2.96-4.47-6.23-8.67-9.8-12.58c0.33-0.43,0.65-0.86,0.95-1.33
				c5.75-8.9,3.81-21.07-4.34-27.17c-8.15-6.11-19.43-3.84-25.18,5.06c-0.29,0.46-0.56,0.93-0.81,1.4c-4.6-2.22-9.41-4.06-14.38-5.5
				c0.09-0.54,0.17-1.09,0.22-1.65c0.91-10.76-6.42-20.16-16.35-21c-9.94-0.84-18.73,7.21-19.64,17.97
				c-0.05,0.56-0.06,1.11-0.06,1.66c-5.15,0.59-10.19,1.6-15.1,3.02c-0.17-0.51-0.35-1.01-0.57-1.51
				c-4.18-9.74-14.92-13.86-23.98-9.2c-9.06,4.66-13.01,16.32-8.83,26.06c0.22,0.51,0.47,0.99,0.72,1.47
				c-4.17,3.26-8.1,6.86-11.77,10.77c-0.39-0.35-0.79-0.7-1.22-1.02c-8.15-6.11-19.43-3.84-25.18,5.06
				c-5.75,8.9-3.81,21.07,4.34,27.17c0.42,0.31,0.85,0.59,1.28,0.86c-2.12,5.01-3.88,10.23-5.28,15.63c-0.5-0.09-1-0.17-1.52-0.21
				c-9.94-0.84-18.73,7.21-19.64,17.97c-0.91,10.76,6.42,20.16,16.35,21c0.51,0.04,1.02,0.05,1.53,0.05
				c0.47,5.56,1.34,11,2.59,16.29c-0.47,0.19-0.94,0.39-1.41,0.63c-9.06,4.66-13.01,16.32-8.83,26.06
				c4.18,9.74,14.92,13.86,23.98,9.2c0.47-0.24,0.92-0.52,1.37-0.8c2.96,4.47,6.23,8.67,9.8,12.58c-0.33,0.43-0.65,0.86-0.95,1.33
				c-5.75,8.9-3.81,21.07,4.34,27.17c8.15,6.11,19.43,3.84,25.18-5.06c0.29-0.46,0.56-0.93,0.81-1.4c4.6,2.22,9.41,4.06,14.38,5.5
				c-0.09,0.54-0.17,1.09-0.22,1.65c-0.91,10.76,6.42,20.16,16.35,21c9.94,0.84,18.73-7.21,19.64-17.97
				c0.05-0.56,0.06-1.11,0.06-1.66c5.15-0.59,10.19-1.6,15.1-3.02c0.17,0.51,0.35,1.01,0.57,1.51c4.18,9.74,14.92,13.86,23.98,9.2
				c9.06-4.66,13.01-16.32,8.83-26.06c-0.22-0.51-0.47-0.99-0.72-1.47c4.17-3.26,8.1-6.86,11.77-10.77c0.39,0.35,0.79,0.7,1.22,1.01
				c8.15,6.11,19.43,3.84,25.18-5.06c5.75-8.9,3.81-21.07-4.34-27.17c-0.42-0.31-0.85-0.59-1.28-0.86
				c2.12-5.01,3.88-10.23,5.28-15.63C508.26,583.92,508.76,584,509.28,584.05z M407.09,627.07c-36.08-3.04-62.67-37.18-59.38-76.25
				c3.29-39.07,35.21-68.28,71.3-65.24s62.67,37.18,59.38,76.25C475.1,600.89,443.18,630.1,407.09,627.07z"/>
		</g>
	</g>
</g>
</svg>
