<?xml version="1.0" encoding="utf-8"?>
<!-- Generator: Adobe Illustrator 27.9.4, SVG Export Plug-In . SVG Version: 9.03 Build 54784)  -->
<svg version="1.1" id="Camada_1" xmlns="http://www.w3.org/2000/svg" xmlns:xlink="http://www.w3.org/1999/xlink" x="0px" y="0px"
	 viewBox="0 0 1129 663" style="enable-background:new 0 0 1129 663;" xml:space="preserve">
<style type="text/css">
	.st0{fill:#F4F7FA;}
	.st1{fill:#D8DEE8;}
	.st2{opacity:0.3;}
	.st3{fill:url(#SVGID_1_);}
	.st4{fill:#FFFFFF;}
	.st5{fill:url(#SVGID_00000064322239753699392470000004457663286455333005_);}
	.st6{fill:url(#SVGID_00000181802199479368635700000009565229197482701971_);}
	.st7{fill:url(#SVGID_00000171709027660835646240000010973795394915160236_);}
	.st8{fill:url(#SVGID_00000106116522118989144360000010061194901405759645_);}
	.st9{opacity:0.35;fill:#FFFFFF;enable-background:new    ;}
	.st10{fill:url(#SVGID_00000149359489763689259900000013426986574698908559_);}
	.st11{fill:url(#SVGID_00000063625492328363862590000001261139464977387673_);}
	.st12{fill:url(#SVGID_00000086671558591753169730000003995671676695504299_);}
	.st13{fill:url(#SVGID_00000038382286361740499390000017989224442126023055_);}
	.st14{fill:#2F599F;}
	.st15{fill:url(#SVGID_00000142874377173501930150000003843670725874358923_);}
	.st16{fill:url(#SVGID_00000041278510005390618520000001760441608178099607_);}
	.st17{fill:url(#SVGID_00000071541697884607374750000013024499886924585909_);}
</style>
<path class="st0" d="M732.52,355.54c0,132.89-22.59,293.96-183.79,293.96S148.77,488.44,148.77,355.54S372.3,11.74,533.5,11.74
	S732.52,222.65,732.52,355.54z"/>
<g>
	<path class="st0" d="M915.59,445.75c-46.17,52.39-123.24,47.23-123.07,71.93c0.19,27.27,94.15,31.87,95.9,57.54
		C890.8,610,723.44,676.9,548.73,649.51c-60.19-9.44-117.18-18.55-166.34-62.97c-134.73-121.72-36.06-379.39-19.98-422.03
		c31.78-84.29,71.14-111.46,83.32-119.94C509.1,0.49,582.01,7.73,647.12,14.19c49.3,4.9,123.13,13.23,190.53,68.8
		c11.49,9.48,36.85,32,59.69,67.73C952.86,237.53,977.39,375.62,915.59,445.75z"/>
	<g>
		<path class="st1" d="M512.95,174.85l-188.24-6.65c-4.32-0.15-7.82,3.04-7.82,7.14V504c0,4.09,3.51,7.21,7.82,6.96l188.24-10.77
			c3.88-0.22,7.02-3.54,7.02-7.41V182.1C519.97,178.23,516.83,174.98,512.95,174.85z"/>
		<g class="st2">
			<path class="st1" d="M435.86,416.85c-3.2-37.5,20.8-52.99,11.65-86.97c-11.31-42.01-54.86-43.85-69.71-85.09
				c-5.69-15.81-7.94-39.7,8.35-74.42l-61.44-2.17c-4.32-0.15-7.82,3.04-7.82,7.14V504c0,4.09,3.51,7.21,7.82,6.96l167.9-9.61
				C449.98,469.75,437.82,439.9,435.86,416.85z"/>
		</g>
		
			<linearGradient id="SVGID_1_" gradientUnits="userSpaceOnUse" x1="485.0651" y1="432.2661" x2="358.6558" y2="236.8477" gradientTransform="matrix(1 0 0 -1 0 663.8898)">
			<stop  offset="0" style="stop-color:#FFFFFF"/>
			<stop  offset="0.9964" style="stop-color:#EBEFF2"/>
		</linearGradient>
		<path class="st3" d="M512.95,178.98l-188.24-6.42c-1.77-0.06-3.21,1.25-3.21,2.93v328.25c0,1.68,1.44,2.96,3.21,2.86l188.24-10.55
			c1.59-0.09,2.89-1.45,2.89-3.04V181.96C515.84,180.37,514.55,179.04,512.95,178.98z"/>
		<path class="st1" d="M421.29,324.32c-35.23,0.25-64.4-27.65-64.4-62.19s29.17-61.85,64.4-60.9c34.56,0.94,62.18,28.82,62.18,62.17
			S455.84,324.07,421.29,324.32z"/>
		<path class="st4" d="M479.25,263.35c0,31.14-25.72,56.53-57.96,56.72c-32.83,0.19-59.89-25.73-59.89-57.9s27.06-57.55,59.89-56.7
			C453.53,206.31,479.25,232.22,479.25,263.35z"/>
		<path class="st1" d="M491.88,346.34l-144.06,1.93c-4.02,0.05-7.28,3.21-7.28,7.04l0,0c0,3.83,3.26,6.89,7.28,6.82l144.06-2.47
			c3.7-0.06,6.7-3.09,6.7-6.76l0,0C498.58,349.22,495.58,346.29,491.88,346.34z"/>
		<path class="st1" d="M491.88,372.55l-118.05,2.46c-3.96,0.08-7.18,3.24-7.18,7.04l0,0c0,3.81,3.22,6.81,7.18,6.72l118.05-2.9
			c3.7-0.09,6.7-3.14,6.7-6.81l0,0C498.58,375.39,495.58,372.47,491.88,372.55z"/>
		<path class="st1" d="M347.82,389.41L347.82,389.41c-4.02,0.1-7.28-2.93-7.28-6.76l0,0c0-3.83,3.26-7.01,7.28-7.09l0,0
			c4.01-0.08,7.26,2.95,7.26,6.76l0,0C355.07,386.13,351.83,389.31,347.82,389.41z"/>
		<path class="st1" d="M491.88,396.27l-118.05,3.25c-3.96,0.11-7.18,3.28-7.18,7.09l0,0c0,3.81,3.22,6.79,7.18,6.67l118.05-3.69
			c3.7-0.12,6.7-3.18,6.7-6.86l0,0C498.58,399.06,495.58,396.17,491.88,396.27z"/>
		<path class="st1" d="M347.82,414.09L347.82,414.09c-4.02,0.13-7.28-2.88-7.28-6.72l0,0c0-3.83,3.26-7.03,7.28-7.14l0,0
			c4.01-0.11,7.26,2.9,7.26,6.72l0,0C355.07,410.77,351.83,413.97,347.82,414.09z"/>
		<path class="st1" d="M491.88,419.99l-118.05,4.04c-3.96,0.14-7.18,3.33-7.18,7.14l0,0c0,3.81,3.22,6.77,7.18,6.62l118.05-4.48
			c3.7-0.14,6.7-3.23,6.7-6.9l0,0C498.58,422.74,495.58,419.86,491.88,419.99z"/>
		<path class="st1" d="M347.82,438.78L347.82,438.78c-4.02,0.15-7.28-2.83-7.28-6.67l0,0c0-3.83,3.26-7.05,7.28-7.19l0,0
			c4.01-0.14,7.26,2.85,7.26,6.67l0,0C355.07,435.41,351.83,438.63,347.82,438.78z"/>
		<path class="st1" d="M491.88,443.71l-118.05,4.83c-3.96,0.16-7.18,3.38-7.18,7.19l0,0c0,3.81,3.22,6.75,7.18,6.57l118.05-5.27
			c3.7-0.17,6.7-3.27,6.7-6.94l0,0C498.58,446.41,495.58,443.56,491.88,443.71z"/>
		<path class="st1" d="M347.82,463.46L347.82,463.46c-4.02,0.18-7.28-2.78-7.28-6.62l0,0c0-3.83,3.26-7.08,7.28-7.24l0,0
			c4.01-0.16,7.26,2.8,7.26,6.62l0,0C355.07,460.04,351.83,463.28,347.82,463.46z"/>
		<g>
			
				<linearGradient id="SVGID_00000083077294737064789010000004881856447672362370_" gradientUnits="userSpaceOnUse" x1="394.0435" y1="466.5331" x2="440.5307" y2="341.2195" gradientTransform="matrix(1 0 0 -1 0 663.8898)">
				<stop  offset="0" style="stop-color:#FFC444"/>
				<stop  offset="0.9964" style="stop-color:#F36F56"/>
			</linearGradient>
			<path style="fill:url(#SVGID_00000083077294737064789010000004881856447672362370_);" d="M421.29,228.18L421.29,228.18
				c-22.73-0.45-41.37,17.2-41.37,39.43v10.19l81.82,0.47v-9.97C461.73,246.59,443.74,228.62,421.29,228.18z"/>
			
				<linearGradient id="SVGID_00000159444787119708178900000010626861869927770244_" gradientUnits="userSpaceOnUse" x1="413.0617" y1="432.6165" x2="451.2308" y2="320.5558" gradientTransform="matrix(1 0 0 -1 0 663.8898)">
				<stop  offset="0" style="stop-color:#FFC444"/>
				<stop  offset="0.9964" style="stop-color:#F36F56"/>
			</linearGradient>
			<path style="fill:url(#SVGID_00000159444787119708178900000010626861869927770244_);" d="M432.63,278.11l-22.76-0.13v-43.97
				c0-6.13,5.12-10.99,11.41-10.86l0,0c6.27,0.13,11.34,5.18,11.34,11.27v43.69H432.63z"/>
			
				<linearGradient id="SVGID_00000120523824970992651210000003071478120876991623_" gradientUnits="userSpaceOnUse" x1="375.15" y1="381.6549" x2="466.27" y2="381.6549" gradientTransform="matrix(1 0 0 -1 0 663.8898)">
				<stop  offset="0" style="stop-color:#FFC444"/>
				<stop  offset="0.9964" style="stop-color:#F36F56"/>
			</linearGradient>
			<path style="fill:url(#SVGID_00000120523824970992651210000003071478120876991623_);" d="M461.43,287.24l-81.21-0.27
				c-2.8-0.01-5.07-2.2-5.07-4.89l0,0c0-2.69,2.27-4.86,5.07-4.85l81.21,0.48c2.67,0.02,4.84,2.16,4.84,4.79l0,0
				C466.27,285.12,464.1,287.24,461.43,287.24z"/>
			
				<linearGradient id="SVGID_00000009585494953802041210000004175432023991523239_" gradientUnits="userSpaceOnUse" x1="409.738" y1="404.9528" x2="433.3069" y2="341.4191" gradientTransform="matrix(1 0 0 -1 0 663.8898)">
				<stop  offset="0" style="stop-color:#FFC444"/>
				<stop  offset="0.9964" style="stop-color:#F36F56"/>
			</linearGradient>
			<path style="fill:url(#SVGID_00000009585494953802041210000004175432023991523239_);" d="M381.18,288.7
				c1.75,7.69,19.14,13.71,40.11,13.69c20.73-0.02,37.56-5.95,39.23-13.46L381.18,288.7z"/>
		</g>
		<path class="st9" d="M435.86,416.85c-3.2-37.5,20.8-52.99,11.65-86.97c-11.31-42.01-54.86-43.85-69.71-85.09
			c-5.46-15.16-7.75-37.74,6.44-70.2l-59.52-2.03c-1.77-0.06-3.21,1.25-3.21,2.93v328.25c0,1.68,1.44,2.96,3.21,2.86l162.82-9.13
			C449,467.3,437.74,438.95,435.86,416.85z"/>
	</g>
	<g>
		<path class="st1" d="M624.35,140.29l-213.87-12.2c-4.99-0.28-9.04,3.54-9.04,8.55v402.08c0,5.01,4.05,8.77,9.04,8.41l213.87-15.55
			c4.34-0.32,7.84-4.34,7.84-8.99V149.16C632.2,144.51,628.69,140.54,624.35,140.29z"/>
		<g class="st2">
			<path class="st1" d="M537.61,431.65c-3.63-45.41,23.52-64.13,13.18-105.23c-12.8-50.92-62.31-53.58-79.28-103.92
				c-6.51-19.33-9.09-48.45,9.54-90.38l-70.57-4.03c-4.99-0.28-9.04,3.54-9.04,8.55v402.08c0,5.01,4.05,8.77,9.04,8.41l191.1-13.89
				C553.59,495.57,539.83,459.54,537.61,431.65z"/>
		</g>
		
			<linearGradient id="SVGID_00000166666223722027471220000008290427285217846939_" gradientUnits="userSpaceOnUse" x1="594.6175" y1="453.65" x2="444.1968" y2="221.1118" gradientTransform="matrix(1 0 0 -1 0 663.8898)">
			<stop  offset="0" style="stop-color:#FFFFFF"/>
			<stop  offset="0.9964" style="stop-color:#EBEFF2"/>
		</linearGradient>
		<path style="fill:url(#SVGID_00000166666223722027471220000008290427285217846939_);" d="M624.35,145.27l-213.87-11.85
			c-2.04-0.11-3.71,1.46-3.71,3.51v401.42c0,2.05,1.66,3.6,3.71,3.46l213.87-15.19c1.78-0.13,3.23-1.78,3.23-3.69V148.91
			C627.58,147,626.13,145.36,624.35,145.27z"/>
		<path class="st1" d="M521.08,319.52c-40.13,0.09-73.55-34.09-73.55-76.2s33.42-74.85,73.55-73.02
			c39.12,1.78,70.24,35.91,70.24,76.13S560.2,319.43,521.08,319.52z"/>
		<path class="st4" d="M586.57,246.33c0,37.56-28.98,68.02-65.49,68.05c-37.39,0.02-68.36-31.74-68.36-70.94
			s30.97-69.63,68.36-67.99C557.59,177.05,586.57,208.77,586.57,246.33z"/>
		<g>
			
				<linearGradient id="SVGID_00000087414250682513635540000009016689899023422093_" gradientUnits="userSpaceOnUse" x1="486.6" y1="394.3566" x2="555.07" y2="394.3566" gradientTransform="matrix(1 0 0 -1 0 663.8898)">
				<stop  offset="0" style="stop-color:#AA80F9"/>
				<stop  offset="0.9964" style="stop-color:#6165D7"/>
			</linearGradient>
			<path style="fill:url(#SVGID_00000087414250682513635540000009016689899023422093_);" d="M545.67,293.76
				c-16.26,4.79-32.69,4.71-49.3-0.3c-5.78-1.74-9.77-7.25-9.77-13.46v-38.22l68.47,1.53v37.39
				C555.07,286.78,551.25,292.12,545.67,293.76z"/>
			<g class="st2">
				
					<linearGradient id="SVGID_00000008869076628742495270000017138340775662439301_" gradientUnits="userSpaceOnUse" x1="486.61" y1="395.3799" x2="555.0801" y2="395.3799" gradientTransform="matrix(1 0 0 -1 0 663.8898)">
					<stop  offset="0" style="stop-color:#AA80F9"/>
					<stop  offset="0.9964" style="stop-color:#6165D7"/>
				</linearGradient>
				<path style="fill:url(#SVGID_00000008869076628742495270000017138340775662439301_);" d="M486.61,241.79V246
					c7.18,10.47,14.45,14.82,20.35,16.69c12.08,3.83,21.21-1.84,29.06,5.21c7.58,6.81,6.41,18.72,6.33,19.4
					c-0.31,2.76-1.13,5.43-2.38,7.93c1.91-0.43,3.81-0.92,5.71-1.48c5.58-1.64,9.4-6.98,9.4-13.06V243.3L486.61,241.79z"/>
			</g>
			
				<linearGradient id="SVGID_00000090258881574967736630000005765167722685733776_" gradientUnits="userSpaceOnUse" x1="470.92" y1="438.5398" x2="569.6801" y2="438.5398" gradientTransform="matrix(1 0 0 -1 0 663.8898)">
				<stop  offset="0" style="stop-color:#AA80F9"/>
				<stop  offset="0.9964" style="stop-color:#6165D7"/>
			</linearGradient>
			<path style="fill:url(#SVGID_00000090258881574967736630000005765167722685733776_);" d="M549.62,215.96
				c-0.59-0.03-1.11-0.01-1.56,0.02c-4.01-13.14-15.72-23-29.66-23.54c-17.48-0.67-31.79,13.54-31.79,31.76c0,0.31,0,0.61,0.01,0.92
				h-0.01c-8.64-0.24-15.69,6.78-15.69,15.68s7.04,16.23,15.69,16.38c2.49,0.04,4.56-0.62,4.56-0.62c4.78-1.66,5.01-5.36,8.09-5.85
				c3.07-0.49,3.79,3.04,9.93,5.44c3.79,1.48,7.1,1.54,9.21,1.58c2.18,0.04,5.48,0.1,9.26-1.28c5.13-1.87,5.45-4.3,8.27-3.99
				c2.92,0.32,3.36,3.03,7.77,4.79c0,0,2.49,0.97,5.92,1.03c11.11,0.19,20.06-9.06,20.06-20.67
				C569.68,224.19,557.42,216.34,549.62,215.96z"/>
		</g>
		<path class="st1" d="M600.76,346.47l-163.64,1.84c-4.62,0.05-8.38,3.89-8.38,8.57l0,0c0,4.68,3.76,8.41,8.38,8.34l163.64-2.7
			c4.15-0.07,7.51-3.71,7.51-8.13l0,0C608.27,349.97,604.91,346.42,600.76,346.47z"/>
		<path class="st1" d="M600.76,378.06l-133.79,2.89c-4.54,0.1-8.23,3.94-8.23,8.58l0,0c0,4.64,3.69,8.3,8.23,8.18l133.79-3.6
			c4.15-0.11,7.51-3.78,7.51-8.2l0,0C608.27,381.48,604.91,377.97,600.76,378.06z"/>
		<path class="st1" d="M437.11,398.5L437.11,398.5c-4.62,0.12-8.38-3.57-8.38-8.25l0,0c0-4.68,3.76-8.56,8.38-8.66l0,0
			c4.61-0.1,8.34,3.6,8.34,8.25l0,0C445.45,394.5,441.73,398.38,437.11,398.5z"/>
		<path class="st1" d="M600.76,406.64l-133.79,4.15c-4.54,0.14-8.23,4.01-8.23,8.65l0,0c0,4.64,3.69,8.26,8.23,8.1l133.79-4.86
			c4.15-0.15,7.51-3.86,7.51-8.28l0,0C608.27,409.99,604.91,406.51,600.76,406.64z"/>
		<path class="st1" d="M437.11,428.62L437.11,428.62c-4.62,0.17-8.38-3.49-8.38-8.17l0,0c0-4.68,3.76-8.59,8.38-8.74l0,0
			c4.61-0.14,8.34,3.52,8.34,8.17l0,0C445.45,424.54,441.73,428.46,437.11,428.62z"/>
		<path class="st1" d="M600.76,435.22l-133.79,5.41c-4.54,0.18-8.23,4.09-8.23,8.73l0,0c0,4.64,3.69,8.23,8.23,8.02l133.79-6.11
			c4.15-0.19,7.51-3.93,7.51-8.35l0,0C608.27,438.5,604.91,435.05,600.76,435.22z"/>
		<path class="st1" d="M437.11,458.74L437.11,458.74c-4.62,0.21-8.38-3.41-8.38-8.09l0,0c0-4.68,3.76-8.63,8.38-8.82l0,0
			c4.61-0.19,8.34,3.44,8.34,8.1l0,0C445.45,454.59,441.73,458.53,437.11,458.74z"/>
		<path class="st1" d="M600.76,463.8l-133.79,6.67c-4.54,0.23-8.23,4.17-8.23,8.81l0,0c0,4.64,3.69,8.19,8.23,7.94l133.79-7.37
			c4.15-0.23,7.51-4,7.51-8.42l0,0C608.27,467.01,604.91,463.59,600.76,463.8z"/>
		<path class="st1" d="M437.11,488.86L437.11,488.86c-4.62,0.25-8.38-3.33-8.38-8.01l0,0c0-4.68,3.76-8.66,8.38-8.89l0,0
			c4.61-0.23,8.34,3.36,8.34,8.02l0,0C445.45,484.63,441.73,488.61,437.11,488.86z"/>
		<path class="st9" d="M537.61,431.65c-3.63-45.41,23.52-64.13,13.18-105.23c-12.8-50.92-62.31-53.58-79.28-103.92
			c-6.24-18.53-8.87-46.07,7.36-85.29l-68.39-3.79c-2.04-0.11-3.71,1.46-3.71,3.51v401.42c0,2.05,1.66,3.6,3.71,3.46l185.39-13.17
			C552.48,492.61,539.74,458.39,537.61,431.65z"/>
	</g>
	<g>
		<path class="st14" d="M772.27,108.08L514.58,90.32c-6.02-0.42-10.92,4.15-10.92,10.19V585.9c0,6.05,4.89,10.63,10.92,10.25
			l257.69-16.54c5.22-0.33,9.43-5.15,9.43-10.75V118.88C781.71,113.28,777.49,108.44,772.27,108.08z"/>
		
			<linearGradient id="SVGID_00000091708096137794154450000003590478240052444063_" gradientUnits="userSpaceOnUse" x1="769.6348" y1="535.8127" x2="576.9499" y2="220.5106" gradientTransform="matrix(1 0 0 -1 0 663.8898)">
			<stop  offset="0" style="stop-color:#2E57A4"/>
			<stop  offset="0.5027" style="stop-color:#6CC6F1"/>
			<stop  offset="1" style="stop-color:#A6DAEC"/>
		</linearGradient>
		<path style="fill:url(#SVGID_00000091708096137794154450000003590478240052444063_);" d="M772.27,114.08L514.58,96.75
			c-2.47-0.17-4.48,1.71-4.48,4.19V585.5c0,2.48,2.01,4.36,4.48,4.21l257.69-16.11c2.14-0.13,3.88-2.12,3.88-4.42V118.51
			C776.15,116.21,774.41,114.22,772.27,114.08z"/>
		<path class="st1" d="M647.95,322.78c-48.37-0.39-88.67-42.05-88.67-92.87s40.3-89.85,88.67-87.09
			c47.12,2.69,84.58,44.27,84.58,92.74S695.07,323.15,647.95,322.78z"/>
		<path class="st4" d="M726.82,235.37c0,45.27-34.89,81.63-78.87,81.2c-45.06-0.44-82.41-39.15-82.41-86.46s37.35-83.59,82.41-81.09
			C691.93,151.46,726.82,190.09,726.82,235.37z"/>
		<path class="st4" d="M743.88,356.24l-197.17,0.22c-5.58,0.01-10.11,4.59-10.11,10.24l0,0c0,5.65,4.54,10.2,10.11,10.16
			l197.17-1.29c5-0.03,9.04-4.38,9.04-9.7l0,0C752.92,360.55,748.88,356.24,743.88,356.24z"/>
		<path class="st4" d="M743.88,394.31l-161.16,1.9c-5.47,0.06-9.92,4.65-9.92,10.25l0,0c0,5.6,4.45,10.06,9.92,9.96l161.16-2.77
			c5-0.09,9.04-4.47,9.04-9.8l0,0C752.92,398.53,748.88,394.26,743.88,394.31z"/>
		<path class="st4" d="M546.71,417.04L546.71,417.04c-5.58,0.1-10.11-4.41-10.11-10.06l0,0c0-5.65,4.54-10.28,10.11-10.35l0,0
			c5.56-0.07,10.06,4.44,10.06,10.06l0,0C556.78,412.32,552.28,416.95,546.71,417.04z"/>
		<path class="st4" d="M743.88,428.76l-161.16,3.45c-5.47,0.12-9.92,4.75-9.92,10.35l0,0c0,5.6,4.45,10.01,9.92,9.87l161.16-4.33
			c5-0.13,9.04-4.56,9.04-9.89l0,0C752.92,432.88,748.88,428.65,743.88,428.76z"/>
		<path class="st4" d="M546.71,453.39L546.71,453.39c-5.58,0.15-10.11-4.31-10.11-9.96l0,0c0-5.65,4.54-10.33,10.11-10.45l0,0
			c5.56-0.12,10.06,4.34,10.06,9.96l0,0C556.78,448.57,552.28,453.24,546.71,453.39z"/>
		<path class="st4" d="M743.88,463.21l-161.16,5.01c-5.47,0.17-9.92,4.84-9.92,10.44l0,0c0,5.6,4.45,9.97,9.92,9.77l161.16-5.88
			c5-0.18,9.04-4.65,9.04-9.97l0,0C752.92,467.24,748.88,463.05,743.88,463.21z"/>
		<path class="st4" d="M546.71,489.74L546.71,489.74c-5.58,0.2-10.11-4.21-10.11-9.86l0,0c0-5.65,4.54-10.37,10.11-10.54l0,0
			c5.56-0.17,10.06,4.24,10.06,9.86l0,0C556.78,484.82,552.28,489.54,546.71,489.74z"/>
		<path class="st4" d="M743.88,497.65l-161.16,6.56c-5.47,0.22-9.92,4.94-9.92,10.54l0,0c0,5.6,4.45,9.93,9.92,9.67l161.16-7.44
			c5-0.23,9.04-4.74,9.04-10.06l0,0C752.92,501.6,748.88,497.45,743.88,497.65z"/>
		<path class="st4" d="M546.71,526.09L546.71,526.09c-5.58,0.26-10.11-4.11-10.11-9.76l0,0c0-5.65,4.54-10.42,10.11-10.64l0,0
			c5.56-0.23,10.06,4.15,10.06,9.77l0,0C556.78,521.07,552.28,525.83,546.71,526.09z"/>
		<g>
			<g>
				<path class="st14" d="M702.15,274.01c2.01,1.02,4.54,0.08,5.65-2.1c1.11-2.18,0.37-4.78-1.64-5.8c-0.1-0.05-0.21-0.1-0.32-0.14
					c0.37-1.21,0.66-2.42,0.85-3.64c0.12,0,0.23,0,0.35-0.01c2.3-0.2,4.12-2.32,4.07-4.72s-1.95-4.18-4.25-3.97
					c-0.12,0.01-0.24,0.03-0.36,0.05c-0.24-1.19-0.57-2.35-0.98-3.48c0.11-0.06,0.21-0.13,0.31-0.2c1.97-1.38,2.59-4.1,1.4-6.07
					c-1.19-1.98-3.75-2.46-5.71-1.08c-0.1,0.07-0.2,0.15-0.29,0.22c-0.78-0.86-1.63-1.65-2.55-2.38c0.06-0.11,0.13-0.21,0.19-0.33
					c1.11-2.18,2.55-4.56,0.52-5.55c-4.7-2.29-6.71-0.33-7.82,1.85c-0.06,0.11-0.11,0.23-0.15,0.34c-1.13-0.32-2.27-0.53-3.43-0.65
					c0.01-0.12,0.01-0.24,0.01-0.37c-0.05-2.4,0.66-3.7-1.64-3.74c-5.03-0.1-6.73,2.09-6.68,4.48c0,0.13,0.01,0.25,0.03,0.37
					c-1.15,0.33-2.28,0.75-3.39,1.26c-0.05-0.11-0.11-0.21-0.17-0.32c-1.19-1.98-3.75-2.46-5.72-1.08s-2.59,4.1-1.4,6.07
					c0.06,0.1,0.13,0.2,0.2,0.29c-0.87,0.87-1.69,1.82-2.44,2.83c-0.1-0.06-0.2-0.12-0.3-0.17c-2.01-1.02-4.54-0.08-5.65,2.1
					c-1.11,2.18-0.37,4.78,1.64,5.8c0.1,0.05,0.21,0.1,0.32,0.14c-0.37,1.21-0.66,2.42-0.85,3.64c-0.12,0-0.23,0-0.35,0.01
					c-2.3,0.2-4.12,2.32-4.07,4.72s1.95,4.18,4.25,3.97c0.12-0.01,0.24-0.03,0.36-0.05c0.24,1.19,0.57,2.35,0.98,3.48
					c-0.11,0.06-0.21,0.13-0.31,0.2c-1.97,1.38-2.59,4.1-1.4,6.07c1.19,1.98,5.13,2.89,7.1,1.52c0.1-0.07-1.19-0.58-1.09-0.66
					c0.78,0.86,1.63,1.65,2.55,2.38c-0.06,0.11-0.13,0.21-0.19,0.33c-1.11,2.18-0.37,4.78,1.64,5.8s4.54,0.08,5.65-2.1
					c0.06-0.11,0.11-0.23,0.15-0.34c1.13,0.32,2.27,0.53,3.43,0.65c-0.01,0.12-0.01,0.24-0.01,0.37c0.05,2.4,1.95,4.18,4.25,3.97
					c2.3-0.2,4.12-2.32,4.07-4.72c0-0.13-0.01-0.25-0.03-0.37c1.15-0.33,2.28-0.75,3.39-1.26c0.05,0.11,0.11,0.21,0.17,0.32
					c1.19,1.98,3.75,2.46,5.71,1.08c1.97-1.38,2.59-4.1,1.4-6.07c-0.06-0.1-0.13-0.2-0.2-0.29c0.87-0.87,1.69-1.82,2.44-2.83
					C701.95,273.9,702.05,273.96,702.15,274.01z M677.05,274.33c-7.31-3.71-9.98-13.14-5.96-21.06c4.02-7.92,13.21-11.33,20.52-7.61
					c7.31,3.71,9.98,13.14,5.96,21.06C693.55,274.63,684.36,278.04,677.05,274.33z"/>
				<path class="st14" d="M707.04,262.32c2.3-0.2,4.12-2.32,4.07-4.72s-1.95-4.18-4.25-3.97c-0.12,0.01-0.24,0.03-0.36,0.05
					c-0.24-1.19-0.57-2.35-0.98-3.48c0.11-0.06,0.21-0.13,0.31-0.2c1.97-1.38,4.4-4.7,3.01-6.55c-2.63-3.5-5.36-1.98-7.32-0.61
					c-0.1,0.07-0.2,0.15-0.29,0.22c-0.78-0.86-1.63-1.65-2.55-2.38c0.06-0.11,0.13-0.21,0.19-0.33c0.6-1.19,0.66-2.5,0.26-3.61
					c-1.9,3.34-3.77,6.7-5.61,10.07c5.83,4.27,7.69,12.7,4.04,19.88c-3.09,6.09-9.23,9.5-15.23,9.07c-0.27,0.69-0.53,1.39-0.82,2.08
					c-0.78,1.86-1.66,3.69-2.54,5.51c0.56,0.1,1.11,0.19,1.67,0.25c-0.01,0.12-0.01,0.24-0.01,0.37c0.05,2.4,1.51,4.44,5.67,4.22
					c2.3-0.12,2.7-2.56,2.65-4.96c0-0.13-0.01-0.25-0.03-0.37c1.15-0.33,2.28-0.75,3.39-1.26c0.05,0.11,0.11,0.21,0.17,0.32
					c1.19,1.98,5.32,2.82,7.29,1.44s1.02-4.45-0.17-6.43c-0.06-0.1-0.13-0.2-0.2-0.29c0.87-0.87,1.69-1.82,2.44-2.83
					c0.1,0.06,0.2,0.12,0.3,0.17c2.01,1.02,4.54,0.08,5.65-2.1c1.11-2.18,0.37-4.78-1.64-5.8c-0.1-0.05-0.21-0.1-0.32-0.14
					c0.37-1.21,0.66-2.42,0.85-3.64C706.8,262.33,706.92,262.33,707.04,262.32z"/>
				
					<linearGradient id="SVGID_00000135661930523745803980000003748765367038875032_" gradientUnits="userSpaceOnUse" x1="680.3023" y1="475.4182" x2="696.8186" y2="284.1487" gradientTransform="matrix(1 0 0 -1 0 663.8898)">
					<stop  offset="0" style="stop-color:#2E57A4"/>
					<stop  offset="0.5027" style="stop-color:#6CC6F1"/>
					<stop  offset="1" style="stop-color:#A6DAEC"/>
				</linearGradient>
				<path style="fill:url(#SVGID_00000135661930523745803980000003748765367038875032_);" d="M704.32,274.26
					c2.01,1.02,4.54,0.08,5.65-2.1c1.11-2.18,0.37-4.78-1.64-5.8c-0.1-0.05-0.21-0.1-0.32-0.14c0.37-1.21,0.66-2.42,0.85-3.64
					c0.12,0,0.23,0,0.35-0.01c2.3-0.2,4.12-2.32,4.07-4.72s-1.95-4.18-4.25-3.97c-0.12,0.01-0.24,0.03-0.36,0.05
					c-0.24-1.19-0.57-2.35-0.98-3.48c0.11-0.06,0.21-0.13,0.31-0.2c1.97-1.38,2.59-4.1,1.4-6.07c-1.19-1.98-3.75-2.46-5.71-1.08
					c-0.1,0.07-0.2,0.15-0.29,0.22c-0.78-0.86-1.63-1.65-2.55-2.38c0.06-0.11,0.13-0.21,0.19-0.33c1.11-2.18,0.37-4.78-1.64-5.8
					s-4.54-0.08-5.65,2.1c-0.06,0.11-0.11,0.23-0.15,0.34c-1.13-0.32-2.27-0.53-3.43-0.65c0.01-0.12,0.01-0.24,0.01-0.37
					c-0.05-2.4-1.95-4.18-4.25-3.97c-2.3,0.2-4.12,2.32-4.07,4.72c0,0.13,0.01,0.25,0.03,0.37c-1.15,0.33-2.28,0.75-3.39,1.26
					c-0.05-0.11-0.11-0.21-0.17-0.32c-1.19-1.98-3.75-2.46-5.71-1.08c-1.97,1.38-2.59,4.1-1.4,6.07c0.06,0.1,0.13,0.2,0.2,0.29
					c-0.87,0.87-1.69,1.82-2.44,2.83c-0.1-0.06-0.2-0.12-0.3-0.17c-2.01-1.02-4.54-0.08-5.65,2.1c-1.11,2.18-0.37,4.78,1.64,5.8
					c0.1,0.05,0.21,0.1,0.32,0.14c-0.37,1.21-0.66,2.42-0.85,3.64c-0.12,0-0.23,0-0.35,0.01c-2.3,0.2-4.12,2.32-4.07,4.72
					s1.95,4.18,4.25,3.97c0.12-0.01,0.24-0.03,0.36-0.05c0.24,1.19,0.57,2.35,0.98,3.48c-0.11,0.06-0.21,0.13-0.31,0.2
					c-1.97,1.38-2.59,4.1-1.4,6.07c1.19,1.98,3.75,2.46,5.71,1.08c0.1-0.07,0.2-0.15,0.29-0.22c0.78,0.86,1.63,1.65,2.55,2.38
					c-0.06,0.11-0.13,0.21-0.19,0.33c-1.11,2.18-0.37,4.78,1.64,5.8s4.54,0.08,5.65-2.1c0.06-0.11,0.11-0.23,0.15-0.34
					c1.13,0.32,2.27,0.53,3.43,0.65c-0.01,0.12-0.01,0.24-0.01,0.37c0.05,2.4,1.95,4.18,4.25,3.97c2.3-0.2,4.12-2.32,4.07-4.72
					c0-0.13-0.01-0.25-0.03-0.37c1.15-0.33,2.28-0.75,3.39-1.26c0.05,0.11,0.11,0.21,0.17,0.32c1.19,1.98,3.75,2.46,5.71,1.08
					c1.97-1.38,2.59-4.1,1.4-6.07c-0.06-0.1-0.13-0.2-0.2-0.29c0.87-0.87,1.69-1.82,2.44-2.83
					C704.11,274.14,704.21,274.2,704.32,274.26z M679.21,274.57c-7.31-3.71-9.98-13.14-5.96-21.06c4.02-7.92,13.21-11.33,20.52-7.61
					c7.31,3.71,9.98,13.14,5.96,21.06S686.52,278.29,679.21,274.57z"/>
			</g>
			<g>
				<path class="st14" d="M652.66,243.73c3.3,1.67,7.44,0.14,9.26-3.44c1.81-3.57,0.61-7.83-2.69-9.5
					c-0.17-0.09-0.35-0.16-0.52-0.23c0.61-1.98,1.07-3.97,1.38-5.96c0.19,0,0.38,0,0.57-0.02c3.76-0.34,6.75-3.79,6.67-7.73
					c-0.08-3.93-3.19-6.85-6.96-6.51c-0.2,0.02-0.39,0.05-0.58,0.08c-0.39-1.95-0.93-3.85-1.61-5.69c0.17-0.1,0.35-0.21,0.51-0.32
					c3.22-2.26,4.25-6.71,2.3-9.95c-1.95-3.24-6.14-4.03-9.36-1.78c-0.17,0.12-0.32,0.24-0.47,0.37c-1.27-1.41-2.67-2.71-4.18-3.9
					c0.11-0.17,0.21-0.35,0.3-0.54c1.81-3.57,4.18-7.47,0.86-9.1c-7.69-3.75-10.99-0.54-12.81,3.03c-0.09,0.19-0.17,0.37-0.25,0.56
					c-1.85-0.52-3.73-0.87-5.61-1.07c0.01-0.2,0.02-0.4,0.02-0.6c-0.08-3.93,1.09-6.06-2.69-6.13c-8.24-0.16-11.02,3.42-10.94,7.35
					c0,0.21,0.02,0.41,0.04,0.61c-1.89,0.54-3.74,1.23-5.55,2.06c-0.09-0.18-0.17-0.35-0.28-0.52c-1.95-3.24-6.14-4.03-9.36-1.78
					c-3.22,2.26-4.25,6.71-2.3,9.95c0.1,0.17,0.21,0.32,0.32,0.47c-1.43,1.43-2.76,2.97-4,4.64c-0.16-0.1-0.32-0.2-0.49-0.28
					c-3.3-1.67-7.44-0.14-9.26,3.44c-1.81,3.57-0.61,7.83,2.69,9.5c0.17,0.09,0.35,0.16,0.52,0.23c-0.61,1.98-1.08,3.97-1.39,5.96
					c-0.19,0-0.38,0-0.57,0.02c-3.76,0.34-6.75,3.79-6.67,7.73c0.08,3.93,3.19,6.85,6.96,6.51c0.2-0.02,0.39-0.05,0.58-0.08
					c0.39,1.95,0.93,3.85,1.61,5.69c-0.17,0.1-0.35,0.21-0.51,0.32c-3.22,2.26-4.25,6.71-2.3,9.95c1.95,3.24,8.41,4.74,11.63,2.48
					c0.16-0.12-1.94-0.95-1.79-1.08c1.27,1.41,2.67,2.71,4.18,3.9c-0.11,0.17-0.21,0.35-0.3,0.54c-1.81,3.57-0.61,7.83,2.69,9.5
					s7.44,0.14,9.26-3.44c0.09-0.19,0.17-0.37,0.25-0.56c1.85,0.52,3.73,0.87,5.61,1.07c-0.01,0.2-0.02,0.4-0.02,0.6
					c0.08,3.93,3.19,6.85,6.96,6.51s6.75-3.79,6.67-7.73c0-0.21-0.02-0.41-0.04-0.61c1.89-0.54,3.74-1.23,5.55-2.06
					c0.09,0.18,0.17,0.35,0.28,0.52c1.95,3.24,6.14,4.03,9.36,1.78c3.22-2.26,4.25-6.71,2.3-9.95c-0.1-0.17-0.21-0.32-0.32-0.47
					c1.43-1.43,2.76-2.97,4-4.64C652.33,243.55,652.49,243.65,652.66,243.73z M611.54,244.26c-11.98-6.08-16.35-21.53-9.77-34.5
					c6.59-12.97,21.63-18.55,33.61-12.47s16.35,21.53,9.77,34.5C638.56,244.75,623.51,250.34,611.54,244.26z"/>
				<path class="st14" d="M660.67,224.59c3.76-0.34,6.75-3.79,6.67-7.73c-0.08-3.93-3.19-6.85-6.96-6.51
					c-0.2,0.02-0.39,0.05-0.58,0.08c-0.39-1.95-0.93-3.85-1.61-5.69c0.17-0.1,0.35-0.21,0.51-0.32c3.22-2.26,7.2-7.71,4.93-10.73
					c-4.31-5.73-8.77-3.25-11.99-0.99c-0.17,0.12-0.32,0.24-0.47,0.37c-1.27-1.41-2.67-2.71-4.18-3.9c0.11-0.17,0.21-0.35,0.3-0.54
					c0.99-1.94,1.07-4.09,0.42-5.91c-3.11,5.47-6.18,10.97-9.19,16.5c9.56,7,12.6,20.8,6.62,32.57
					c-5.06,9.97-15.12,15.57-24.95,14.87c-0.44,1.14-0.87,2.28-1.34,3.4c-1.27,3.05-2.72,6.05-4.17,9.03
					c0.91,0.17,1.83,0.31,2.74,0.4c-0.01,0.2-0.02,0.4-0.02,0.6c0.08,3.93,2.47,7.27,9.29,6.91c3.77-0.2,4.42-4.19,4.34-8.12
					c0-0.21-0.02-0.41-0.04-0.61c1.89-0.54,3.74-1.23,5.55-2.06c0.09,0.18,0.17,0.35,0.28,0.52c1.95,3.24,8.72,4.61,11.94,2.36
					c3.22-2.26,1.68-7.29-0.27-10.53c-0.1-0.17-0.21-0.32-0.32-0.47c1.43-1.43,2.76-2.97,4-4.64c0.16,0.1,0.32,0.2,0.49,0.28
					c3.3,1.68,7.44,0.14,9.26-3.44c1.81-3.57,0.61-7.83-2.69-9.5c-0.17-0.09-0.35-0.16-0.52-0.23c0.61-1.98,1.07-3.97,1.38-5.96
					C660.28,224.61,660.47,224.6,660.67,224.59z"/>
				
					<linearGradient id="SVGID_00000103226435054158167220000012817412008863183784_" gradientUnits="userSpaceOnUse" x1="624.5861" y1="470.607" x2="641.1024" y2="279.3378" gradientTransform="matrix(1 0 0 -1 0 663.8898)">
					<stop  offset="0" style="stop-color:#2E57A4"/>
					<stop  offset="0.5027" style="stop-color:#6CC6F1"/>
					<stop  offset="1" style="stop-color:#A6DAEC"/>
				</linearGradient>
				<path style="fill:url(#SVGID_00000103226435054158167220000012817412008863183784_);" d="M656.21,244.14
					c3.3,1.67,7.44,0.14,9.26-3.44c1.81-3.57,0.61-7.83-2.69-9.5c-0.17-0.09-0.35-0.16-0.52-0.23c0.61-1.98,1.08-3.97,1.38-5.96
					c0.19,0,0.38,0,0.57-0.02c3.76-0.34,6.75-3.79,6.67-7.73c-0.08-3.93-3.19-6.85-6.96-6.51c-0.2,0.02-0.39,0.05-0.58,0.08
					c-0.39-1.95-0.93-3.85-1.61-5.69c0.17-0.1,0.35-0.21,0.51-0.32c3.22-2.26,4.25-6.71,2.3-9.95c-1.95-3.24-6.14-4.03-9.36-1.78
					c-0.17,0.12-0.32,0.24-0.47,0.37c-1.27-1.41-2.67-2.71-4.18-3.9c0.11-0.17,0.21-0.35,0.3-0.54c1.81-3.57,0.61-7.83-2.69-9.5
					c-3.3-1.68-7.44-0.14-9.26,3.44c-0.09,0.19-0.17,0.37-0.25,0.56c-1.85-0.52-3.73-0.87-5.61-1.07c0.01-0.2,0.02-0.4,0.02-0.6
					c-0.08-3.93-3.19-6.85-6.96-6.51c-3.76,0.34-6.75,3.79-6.67,7.73c0,0.21,0.02,0.41,0.04,0.61c-1.89,0.54-3.74,1.23-5.55,2.06
					c-0.09-0.18-0.17-0.35-0.28-0.52c-1.95-3.24-6.14-4.03-9.36-1.78c-3.22,2.26-4.25,6.71-2.3,9.95c0.1,0.17,0.21,0.32,0.32,0.47
					c-1.43,1.43-2.76,2.97-4,4.64c-0.16-0.1-0.32-0.2-0.49-0.28c-3.3-1.68-7.44-0.14-9.26,3.44c-1.81,3.57-0.61,7.83,2.69,9.5
					c0.17,0.09,0.35,0.16,0.52,0.23c-0.61,1.98-1.08,3.97-1.39,5.96c-0.19,0-0.38,0-0.57,0.02c-3.76,0.34-6.75,3.79-6.67,7.73
					c0.08,3.93,3.19,6.85,6.96,6.51c0.2-0.02,0.39-0.05,0.58-0.08c0.39,1.95,0.93,3.85,1.61,5.69c-0.17,0.1-0.35,0.21-0.51,0.32
					c-3.22,2.26-4.25,6.71-2.3,9.95c1.95,3.24,6.14,4.03,9.36,1.78c0.17-0.12,0.32-0.24,0.47-0.37c1.27,1.41,2.67,2.71,4.18,3.9
					c-0.11,0.17-0.21,0.35-0.3,0.54c-1.81,3.57-0.61,7.83,2.69,9.5c3.3,1.67,7.44,0.14,9.26-3.44c0.09-0.18,0.17-0.37,0.25-0.56
					c1.85,0.52,3.73,0.87,5.61,1.07c-0.01,0.2-0.02,0.4-0.02,0.6c0.08,3.93,3.19,6.85,6.96,6.51c3.76-0.34,6.75-3.79,6.67-7.73
					c0-0.21-0.02-0.41-0.04-0.61c1.89-0.54,3.74-1.23,5.55-2.06c0.09,0.18,0.17,0.35,0.28,0.52c1.95,3.24,6.14,4.03,9.36,1.78
					c3.22-2.26,4.25-6.71,2.3-9.95c-0.1-0.17-0.21-0.32-0.32-0.47c1.43-1.43,2.76-2.97,4-4.64
					C655.88,243.95,656.04,244.05,656.21,244.14z M615.08,244.66c-11.98-6.08-16.35-21.53-9.77-34.5
					c6.59-12.97,21.63-18.55,33.61-12.47s16.35,21.53,9.77,34.5C642.11,245.16,627.06,250.74,615.08,244.66z"/>
			</g>
		</g>
	</g>
</g>
</svg>
